<svg width="32" height="32" viewBox="0 0 32 32" fill="none" xmlns="http://www.w3.org/2000/svg">
<path d="M30.9333 6.39729C31.2162 6.39729 31.4875 6.28495 31.6876 6.085C31.8876 5.88505 32 5.61385 32 5.33107V1.06621C32 0.783437 31.8876 0.512241 31.6876 0.312287C31.4875 0.112333 31.2162 0 30.9333 0H1.06667C0.783769 0 0.512458 0.112333 0.312419 0.312287C0.112381 0.512241 0 0.783437 0 1.06621V5.33107C0 5.61385 0.112381 5.88505 0.312419 6.085C0.512458 6.28495 0.783769 6.39729 1.06667 6.39729H2.13333V21.3243H1.06667C0.783769 21.3243 0.512458 21.4366 0.312419 21.6366C0.112381 21.8365 0 22.1077 0 22.3905C0 22.6733 0.112381 22.9445 0.312419 23.1444C0.512458 23.3444 0.783769 23.4567 1.06667 23.4567H14.9333V25.7856C14.2216 26.0372 13.6218 26.5321 13.2399 27.1829C12.8579 27.8337 12.7184 28.5986 12.8461 29.3423C12.9737 30.0859 13.3603 30.7606 13.9374 31.2469C14.5146 31.7333 15.2451 32 16 32C16.7549 32 17.4854 31.7333 18.0626 31.2469C18.6397 30.7606 19.0263 30.0859 19.1539 29.3423C19.2816 28.5986 19.1421 27.8337 18.7601 27.1829C18.3782 26.5321 17.7784 26.0372 17.0667 25.7856V23.4567H30.9333C31.2162 23.4567 31.4875 23.3444 31.6876 23.1444C31.8876 22.9445 32 22.6733 32 22.3905C32 22.1077 31.8876 21.8365 31.6876 21.6366C31.4875 21.4366 31.2162 21.3243 30.9333 21.3243H29.8667V6.39729H30.9333ZM16 29.854C15.789 29.854 15.5828 29.7915 15.4074 29.6743C15.232 29.5572 15.0953 29.3906 15.0145 29.1958C14.9338 29.001 14.9127 28.7866 14.9538 28.5798C14.995 28.373 15.0966 28.183 15.2458 28.0339C15.3949 27.8847 15.585 27.7832 15.7919 27.7421C15.9988 27.7009 16.2133 27.722 16.4082 27.8027C16.6031 27.8834 16.7697 28.0201 16.8869 28.1954C17.0041 28.3708 17.0667 28.5769 17.0667 28.7878C17.0663 29.0705 16.9538 29.3414 16.7538 29.5413C16.5539 29.7412 16.2828 29.8536 16 29.854ZM2.13333 2.13243H29.8667V4.26486H2.13333V2.13243ZM27.7333 21.3243H4.26667V6.39729H27.7333V21.3243Z" fill="#F7CEFF"/>
<path d="M7.46669 19.1918H16C16.2829 19.1918 16.5542 19.0795 16.7543 18.8796C16.9543 18.6796 17.0667 18.4084 17.0667 18.1256C17.0667 17.8429 16.9543 17.5717 16.7543 17.3717C16.5542 17.1717 16.2829 17.0594 16 17.0594H7.46669C7.18379 17.0594 6.91248 17.1717 6.71244 17.3717C6.51241 17.5717 6.40002 17.8429 6.40002 18.1256C6.40002 18.4084 6.51241 18.6796 6.71244 18.8796C6.91248 19.0795 7.18379 19.1918 7.46669 19.1918Z" fill="#F7CEFF"/>
<path d="M7.46669 14.927H20.2667C20.5496 14.927 20.8209 14.8147 21.0209 14.6147C21.221 14.4148 21.3334 14.1436 21.3334 13.8608C21.3334 13.578 21.221 13.3068 21.0209 13.1069C20.8209 12.9069 20.5496 12.7946 20.2667 12.7946H7.46669C7.18379 12.7946 6.91248 12.9069 6.71244 13.1069C6.51241 13.3068 6.40002 13.578 6.40002 13.8608C6.40002 14.1436 6.51241 14.4148 6.71244 14.6147C6.91248 14.8147 7.18379 14.927 7.46669 14.927Z" fill="#F7CEFF"/>
<path d="M7.46669 10.6622H24.5334C24.8163 10.6622 25.0876 10.5498 25.2876 10.3499C25.4876 10.1499 25.6 9.87872 25.6 9.59594C25.6 9.31316 25.4876 9.04197 25.2876 8.84201C25.0876 8.64206 24.8163 8.52972 24.5334 8.52972H7.46669C7.18379 8.52972 6.91248 8.64206 6.71244 8.84201C6.51241 9.04197 6.40002 9.31316 6.40002 9.59594C6.40002 9.87872 6.51241 10.1499 6.71244 10.3499C6.91248 10.5498 7.18379 10.6622 7.46669 10.6622Z" fill="#F7CEFF"/>
</svg>
