<svg width="32" height="32" viewBox="0 0 32 32" fill="none" xmlns="http://www.w3.org/2000/svg">
<path d="M31.6875 14.2926L26.6667 9.58566V0.999974C26.6667 0.734765 26.5543 0.480417 26.3542 0.292886C26.1542 0.105354 25.8829 0 25.6 0L6.4 0C6.1171 0 5.84579 0.105354 5.64575 0.292886C5.44571 0.480417 5.33333 0.734765 5.33333 0.999974V9.58566L0.312533 14.2926C0.121747 14.4858 0.0109012 14.7366 0 14.9996V30.9992C0.00170689 31.2639 0.114636 31.5173 0.314306 31.7045C0.513976 31.8917 0.784296 31.9976 1.06667 31.9992H30.9333C31.2157 31.9975 31.486 31.8916 31.6856 31.7045C31.8853 31.5173 31.9982 31.2639 32 30.9992V14.9996C31.989 14.7366 31.8782 14.4858 31.6875 14.2926ZM2.13333 16.8316L9.86763 21.4923L2.13333 28.6156V16.8316ZM11.7082 22.6014L12.5488 23.108L15.4229 24.8403C15.5974 24.938 15.7968 24.9896 16 24.9896C16.2032 24.9896 16.4026 24.938 16.5771 24.8403L19.4512 23.108L20.2916 22.6016L28.3253 29.9992H3.67413L11.7082 22.6014ZM22.1333 21.4921L29.8667 16.8316V28.6151L22.1333 21.4921ZM29.2435 14.8296L26.6667 16.3825V12.4138L29.2435 14.8296ZM7.46667 1.99995H24.5333V17.6675L16 22.8109L7.46667 17.6675V1.99995ZM5.33333 16.3827L2.75627 14.8296L5.33333 12.4138V16.3827Z" fill="#F7CEFF"/>
<path d="M10.6666 5.99989H21.3333C21.6162 5.99989 21.8875 5.89453 22.0876 5.707C22.2876 5.51947 22.4 5.26512 22.4 4.99991C22.4 4.7347 22.2876 4.48036 22.0876 4.29282C21.8875 4.10529 21.6162 3.99994 21.3333 3.99994H10.6666C10.3837 3.99994 10.1124 4.10529 9.9124 4.29282C9.71236 4.48036 9.59998 4.7347 9.59998 4.99991C9.59998 5.26512 9.71236 5.51947 9.9124 5.707C10.1124 5.89453 10.3837 5.99989 10.6666 5.99989Z" fill="#F7CEFF"/>
<path d="M10.6666 9.99974H21.3333C21.6162 9.99974 21.8875 9.89438 22.0876 9.70685C22.2876 9.51932 22.4 9.26497 22.4 8.99976C22.4 8.73455 22.2876 8.4802 22.0876 8.29267C21.8875 8.10514 21.6162 7.99979 21.3333 7.99979H10.6666C10.3837 7.99979 10.1124 8.10514 9.9124 8.29267C9.71236 8.4802 9.59998 8.73455 9.59998 8.99976C9.59998 9.26497 9.71236 9.51932 9.9124 9.70685C10.1124 9.89438 10.3837 9.99974 10.6666 9.99974Z" fill="#F7CEFF"/>
<path d="M10.6666 13.9997H21.3333C21.6162 13.9997 21.8875 13.8943 22.0876 13.7068C22.2876 13.5193 22.4 13.2649 22.4 12.9997C22.4 12.7345 22.2876 12.4801 22.0876 12.2926C21.8875 12.1051 21.6162 11.9997 21.3333 11.9997H10.6666C10.3837 11.9997 10.1124 12.1051 9.9124 12.2926C9.71236 12.4801 9.59998 12.7345 9.59998 12.9997C9.59998 13.2649 9.71236 13.5193 9.9124 13.7068C10.1124 13.8943 10.3837 13.9997 10.6666 13.9997Z" fill="#F7CEFF"/>
<path d="M10.6666 17.9996H21.3333C21.6162 17.9996 21.8875 17.8942 22.0876 17.7067C22.2876 17.5191 22.4 17.2648 22.4 16.9996C22.4 16.7344 22.2876 16.48 22.0876 16.2925C21.8875 16.105 21.6162 15.9996 21.3333 15.9996H10.6666C10.3837 15.9996 10.1124 16.105 9.9124 16.2925C9.71236 16.48 9.59998 16.7344 9.59998 16.9996C9.59998 17.2648 9.71236 17.5191 9.9124 17.7067C10.1124 17.8942 10.3837 17.9996 10.6666 17.9996Z" fill="#F7CEFF"/>
</svg>
