<svg width="39" height="48" viewBox="0 0 39 48" fill="none" xmlns="http://www.w3.org/2000/svg">
<path d="M28.5 45H23.2006C28.3409 39.8223 39 28.0558 39 19.5C39 14.3283 36.9455 9.36838 33.2886 5.71142C29.6316 2.05446 24.6717 0 19.5 0C14.3283 0 9.36838 2.05446 5.71142 5.71142C2.05446 9.36838 0 14.3283 0 19.5C0 28.0558 10.6592 39.8223 15.7993 45H10.5C10.1022 45 9.72064 45.158 9.43934 45.4393C9.15804 45.7206 9 46.1022 9 46.5C9 46.8978 9.15804 47.2794 9.43934 47.5607C9.72064 47.842 10.1022 48 10.5 48H28.5C28.8978 48 29.2794 47.842 29.5607 47.5607C29.842 47.2794 30 46.8978 30 46.5C30 46.1022 29.842 45.7206 29.5607 45.4393C29.2794 45.158 28.8978 45 28.5 45ZM19.5 3C23.8745 3.00496 28.0685 4.74494 31.1618 7.83822C34.2551 10.9315 35.995 15.1255 36 19.5C36 27.8438 23.2208 40.8282 19.4942 44.436C14.0831 39.249 3 27.0587 3 19.5C3.00496 15.1255 4.74494 10.9315 7.83822 7.83822C10.9315 4.74494 15.1255 3.00496 19.5 3Z" fill="#F7CEFF"/>
<path d="M29.8 19.726C29.8 17.6452 29.1901 15.6112 28.0473 13.8811C26.9045 12.151 25.2803 10.8026 23.3799 10.0063C21.4796 9.21 19.3885 9.00166 17.3711 9.4076C15.3537 9.81354 13.5006 10.8155 12.0461 12.2868C10.5916 13.7582 9.60112 15.6328 9.19984 17.6735C8.79855 19.7143 9.00451 21.8297 9.79166 23.752C10.5788 25.6744 11.9118 27.3175 13.6221 28.4735C15.3323 29.6295 17.3431 30.2465 19.4 30.2465C22.1572 30.2432 24.8006 29.1337 26.7502 27.1614C28.6999 25.1892 29.7967 22.5152 29.8 19.726ZM11.9714 19.726C11.9714 18.2397 12.4071 16.7868 13.2234 15.5511C14.0396 14.3153 15.1998 13.3521 16.5572 12.7833C17.9146 12.2146 19.4082 12.0658 20.8492 12.3557C22.2902 12.6457 23.6139 13.3614 24.6528 14.4123C25.6917 15.4633 26.3992 16.8023 26.6858 18.26C26.9725 19.7177 26.8254 21.2286 26.2631 22.6017C25.7009 23.9749 24.7487 25.1485 23.5271 25.9742C22.3055 26.7999 20.8692 27.2407 19.4 27.2407C17.4305 27.2383 15.5424 26.4458 14.1498 25.0371C12.7571 23.6283 11.9738 21.7183 11.9714 19.726Z" fill="#F7CEFF"/>
</svg>
