<?xml version="1.0" encoding="UTF-8"?>
<svg id="Layer_1" xmlns="http://www.w3.org/2000/svg" xmlns:xlink="http://www.w3.org/1999/xlink" version="1.1" viewBox="0 0 561.38 495.75">
  <!-- Generator: Adobe Illustrator 30.0.0, SVG Export Plug-In . SVG Version: 2.1.1 Build 123)  -->
  <defs>
    <style>
      .st0, .st1 {
        fill: none;
      }

      .st2 {
        fill: #ebf5fc;
      }

      .st3 {
        fill: #a9a9a9;
      }

      .st4 {
        fill: #ffce00;
      }

      .st5, .st6 {
        fill: #2463d1;
      }

      .st7 {
        stroke: #868686;
      }

      .st7, .st8, .st9 {
        fill: #fff;
      }

      .st10, .st11 {
        fill: #1e1e1e;
      }

      .st8, .st1 {
        stroke: #2463d1;
      }

      .st1 {
        stroke-opacity: .27;
      }

      .st12 {
        clip-path: url(#clippath-1);
      }

      .st6, .st11 {
        fill-rule: evenodd;
      }

      .st13 {
        fill: #666;
      }

      .st14 {
        fill: #e9f;
        font-family: HelveticaNeue-Medium, 'Helvetica Neue';
        font-size: 16px;
        font-weight: 500;
        isolation: isolate;
        letter-spacing: .08em;
      }

      .st15 {
        fill: #e9e9e9;
      }

      .st16 {
        fill: #f5f5f5;
      }

      .st17 {
        clip-path: url(#clippath);
      }
    </style>
    <clipPath id="clippath">
      <path class="st0" d="M194.38,269h312c2.21,0,4,1.79,4,4s-1.79,4-4,4H194.38c-2.21,0-4-1.79-4-4s1.79-4,4-4Z"/>
    </clipPath>
    <clipPath id="clippath-1">
      <rect class="st0" x="395.38" y="76" width="113" height="25"/>
    </clipPath>
  </defs>
  <path class="st16" d="M1.38,16C1.38,7.16,8.54,0,17.38,0h528c8.84,0,16,7.16,16,16v411c0,8.84-7.16,16-16,16H17.38c-8.84,0-16-7.16-16-16V16Z"/>
  <g>
    <rect class="st2" x="44.38" y="144" width="466" height="50" rx="2" ry="2"/>
    <rect class="st1" x="44.88" y="144.5" width="465" height="49" rx="1.5" ry="1.5"/>
    <path class="st5" d="M44.38,144h4v50h-4v-50Z"/>
    <path class="st5" d="M68.38,161c4.42,0,8,3.58,8,8s-3.58,8-8,8-8-3.58-8-8,3.58-8,8-8ZM68.38,163c-3.31,0-6,2.69-6,6s2.69,6,6,6,6-2.69,6-6-2.69-6-6-6ZM69.38,173h-2v-5h2v5ZM69.38,167h-2v-2h2v2Z"/>
    <path class="st10" d="M93.5,165.76h-3.09v-1.04h7.42v1.04h-3.09v8.24h-1.24v-8.24ZM98.67,164.72h1.11v3.55h.03c.09-.21.21-.38.36-.52.16-.15.33-.26.52-.35.2-.1.4-.16.61-.21.22-.04.43-.07.62-.07.44,0,.81.06,1.11.18.29.12.53.29.71.51.18.22.31.48.38.78.08.29.12.62.12.99v4.42h-1.11v-4.55c0-.42-.12-.74-.36-.99-.24-.24-.58-.36-1-.36-.34,0-.63.05-.88.16-.24.1-.45.25-.61.44-.16.19-.29.42-.38.68-.08.25-.12.53-.12.83v3.8h-1.11v-9.28ZM107.07,166.07h-1.11v-1.35h1.11v1.35ZM105.96,167.28h1.11v6.72h-1.11v-6.72ZM109.46,171.88c0,.24.06.45.17.62.1.16.24.3.4.4.17.1.36.16.57.21.22.04.44.07.66.07.17,0,.36-.01.55-.04.19-.03.36-.07.52-.14.17-.07.3-.17.4-.3.1-.14.16-.31.16-.52,0-.29-.11-.5-.33-.65-.22-.15-.49-.26-.82-.35-.32-.1-.67-.18-1.05-.25-.38-.08-.74-.18-1.07-.31-.32-.14-.59-.33-.81-.57-.22-.24-.33-.58-.33-1.01,0-.34.07-.63.22-.87.16-.24.35-.44.58-.58.24-.16.51-.27.81-.34.3-.08.6-.12.9-.12.38,0,.73.04,1.05.1.32.06.6.17.85.34.25.16.45.37.6.65.15.27.23.61.26,1.01h-1.1c-.02-.22-.07-.39-.17-.53-.1-.15-.22-.26-.36-.35-.15-.09-.31-.15-.49-.18-.17-.04-.35-.06-.53-.06-.16,0-.33.01-.51.04-.16.03-.32.07-.46.14-.14.06-.25.15-.34.26-.09.1-.13.24-.13.42,0,.19.06.35.19.48.14.12.31.23.52.31.21.08.44.15.7.21.26.05.52.11.78.17.28.06.55.13.81.22.27.09.5.2.7.35.21.14.37.32.49.53.13.22.19.49.19.81,0,.41-.09.74-.26,1.01-.16.27-.38.49-.66.65-.27.16-.58.28-.92.34-.34.07-.68.1-1.01.1-.37,0-.73-.04-1.07-.12-.34-.08-.64-.2-.9-.38-.26-.18-.47-.42-.62-.7-.16-.3-.24-.65-.26-1.07h1.11ZM120.07,166.07h-1.11v-1.35h1.11v1.35ZM118.96,167.28h1.11v6.72h-1.11v-6.72ZM122.46,171.88c0,.24.06.45.17.62.1.16.24.3.4.4.17.1.36.16.57.21.22.04.44.07.66.07.17,0,.36-.01.55-.04.19-.03.36-.07.52-.14.17-.07.3-.17.4-.3.1-.14.16-.31.16-.52,0-.29-.11-.5-.33-.65-.22-.15-.49-.26-.82-.35-.32-.1-.67-.18-1.05-.25-.38-.08-.74-.18-1.07-.31-.32-.14-.59-.33-.81-.57-.22-.24-.33-.58-.33-1.01,0-.34.07-.63.22-.87.16-.24.35-.44.58-.58.24-.16.51-.27.81-.34.3-.08.6-.12.9-.12.38,0,.73.04,1.05.1.32.06.6.17.85.34.25.16.45.37.6.65.15.27.23.61.26,1.01h-1.1c-.02-.22-.07-.39-.17-.53-.1-.15-.22-.26-.36-.35-.15-.09-.31-.15-.49-.18-.17-.04-.35-.06-.53-.06-.16,0-.33.01-.51.04-.16.03-.32.07-.46.14-.14.06-.25.15-.34.26-.09.1-.13.24-.13.42,0,.19.06.35.19.48.14.12.31.23.52.31.21.08.44.15.7.21.26.05.52.11.78.17.28.06.55.13.81.22.27.09.5.2.7.35.21.14.37.32.49.53.13.22.19.49.19.81,0,.41-.09.74-.26,1.01-.16.27-.38.49-.66.65-.27.16-.58.28-.92.34-.34.07-.68.1-1.01.1-.37,0-.73-.04-1.07-.12-.34-.08-.64-.2-.9-.38-.26-.18-.47-.42-.62-.7-.16-.3-.24-.65-.26-1.07h1.11ZM137.85,173.97c-.19.11-.46.17-.79.17-.29,0-.51-.08-.69-.23-.16-.16-.25-.43-.25-.79-.3.36-.66.63-1.07.79-.4.16-.83.23-1.3.23-.3,0-.59-.04-.87-.1-.27-.07-.5-.18-.7-.32-.2-.15-.36-.34-.48-.57-.11-.24-.17-.53-.17-.87,0-.38.06-.69.19-.94.13-.24.3-.44.51-.59.22-.16.46-.27.73-.35.28-.08.56-.14.85-.2.3-.06.59-.1.86-.13.28-.04.52-.08.73-.13.21-.06.37-.14.49-.25.12-.11.18-.27.18-.48,0-.24-.05-.44-.14-.59-.09-.15-.2-.26-.35-.34-.14-.08-.3-.13-.48-.16-.17-.03-.35-.04-.52-.04-.47,0-.86.09-1.17.27-.31.17-.48.51-.51,1h-1.1c.02-.42.1-.77.26-1.05.16-.29.36-.52.62-.69.26-.18.55-.31.88-.39.34-.08.7-.12,1.08-.12.3,0,.6.02.9.07.3.04.58.13.82.27.24.13.44.32.58.56.15.24.22.56.22.95v3.46c0,.26.01.45.04.57.03.12.14.18.31.18.1,0,.21-.02.34-.07v.86ZM136.06,170.53c-.14.1-.32.18-.55.23-.23.04-.46.08-.71.12-.24.03-.49.06-.74.1-.25.04-.48.1-.68.18-.2.09-.36.21-.49.38-.12.16-.18.37-.18.65,0,.18.03.34.1.47.08.12.17.22.29.3.12.08.26.13.42.17.16.04.32.05.49.05.36,0,.68-.05.94-.14.26-.1.47-.23.64-.38.16-.16.29-.32.36-.49.08-.18.12-.35.12-.51v-1.13ZM144.03,167.28h1.34v.97h-1.34v4.17c0,.13,0,.23.03.31.03.08.07.14.13.18.06.04.14.07.25.09.11,0,.26.01.43.01h.51v.98h-.85c-.29,0-.53-.02-.74-.05-.2-.04-.36-.12-.49-.22-.12-.1-.21-.25-.27-.44-.06-.19-.09-.44-.09-.75v-4.28h-1.14v-.97h1.14v-2.01h1.1v2.01ZM147.41,170.65c0,.41.05.77.16,1.09.11.31.26.58.46.79.19.21.41.37.66.48.26.11.53.17.82.17s.55-.06.81-.17c.26-.11.49-.27.68-.48.19-.22.34-.48.44-.79.11-.32.17-.69.17-1.09s-.06-.77-.17-1.08c-.1-.32-.25-.59-.44-.81-.19-.22-.42-.38-.68-.49-.25-.11-.52-.17-.81-.17s-.56.06-.82.17c-.25.11-.47.28-.66.49-.19.22-.34.49-.46.81-.1.31-.16.67-.16,1.08ZM146.24,170.65c0-.49.07-.95.21-1.38.14-.43.35-.81.62-1.12.28-.32.62-.57,1.03-.75.41-.18.88-.27,1.4-.27s1.01.09,1.4.27c.41.18.75.43,1.03.75.28.31.49.69.62,1.12.14.42.21.88.21,1.38s-.07.95-.21,1.38c-.14.43-.35.8-.62,1.12-.28.31-.62.56-1.03.74-.4.17-.87.26-1.4.26s-1-.09-1.4-.26c-.41-.18-.75-.43-1.03-.74-.28-.32-.49-.69-.62-1.12-.14-.43-.21-.88-.21-1.38ZM160.02,173.97c-.19.11-.46.17-.79.17-.29,0-.51-.08-.69-.23-.16-.16-.25-.43-.25-.79-.3.36-.66.63-1.07.79-.4.16-.83.23-1.3.23-.3,0-.59-.04-.87-.1-.27-.07-.5-.18-.7-.32-.2-.15-.36-.34-.48-.57-.11-.24-.17-.53-.17-.87,0-.38.06-.69.19-.94.13-.24.3-.44.51-.59.22-.16.46-.27.73-.35.28-.08.56-.14.85-.2.3-.06.59-.1.86-.13.28-.04.52-.08.73-.13.21-.06.37-.14.49-.25.12-.11.18-.27.18-.48,0-.24-.05-.44-.14-.59-.09-.15-.2-.26-.35-.34-.14-.08-.3-.13-.48-.16-.17-.03-.35-.04-.52-.04-.47,0-.86.09-1.17.27-.31.17-.48.51-.51,1h-1.1c.02-.42.1-.77.26-1.05.16-.29.36-.52.62-.69.26-.18.55-.31.88-.39.34-.08.7-.12,1.08-.12.3,0,.6.02.9.07.3.04.58.13.82.27.24.13.44.32.58.56.15.24.22.56.22.95v3.46c0,.26.01.45.04.57.03.12.14.18.31.18.1,0,.21-.02.34-.07v.86ZM158.22,170.53c-.14.1-.32.18-.55.23-.23.04-.46.08-.71.12-.24.03-.49.06-.74.1-.25.04-.48.1-.68.18-.2.09-.36.21-.49.38-.12.16-.18.37-.18.65,0,.18.03.34.1.47.08.12.17.22.29.3.12.08.26.13.42.17.16.04.32.05.49.05.36,0,.68-.05.94-.14.26-.1.47-.23.64-.38.16-.16.29-.32.36-.49.08-.18.12-.35.12-.51v-1.13ZM161.72,171.88c0,.24.07.45.17.62.1.16.24.3.4.4.17.1.36.16.57.21.22.04.44.07.66.07.17,0,.36-.01.55-.04.19-.03.36-.07.52-.14.16-.07.3-.17.4-.3.1-.14.16-.31.16-.52,0-.29-.11-.5-.32-.65-.22-.15-.49-.26-.82-.35-.32-.1-.67-.18-1.05-.25-.38-.08-.74-.18-1.07-.31-.32-.14-.59-.33-.81-.57-.22-.24-.32-.58-.32-1.01,0-.34.07-.63.22-.87.16-.24.35-.44.58-.58.24-.16.51-.27.81-.34.3-.08.6-.12.9-.12.38,0,.73.04,1.05.1.32.06.6.17.84.34.25.16.45.37.6.65.15.27.23.61.26,1.01h-1.1c-.02-.22-.07-.39-.17-.53-.09-.15-.22-.26-.36-.35-.15-.09-.31-.15-.49-.18-.17-.04-.35-.06-.53-.06-.17,0-.33.01-.51.04-.16.03-.32.07-.46.14-.14.06-.25.15-.34.26-.09.1-.13.24-.13.42,0,.19.07.35.2.48.14.12.31.23.52.31.21.08.44.15.7.21.26.05.52.11.78.17.28.06.55.13.81.22.27.09.5.2.7.35.21.14.37.32.49.53.13.22.2.49.2.81,0,.41-.09.74-.26,1.01-.16.27-.39.49-.66.65-.27.16-.58.28-.92.34-.34.07-.68.1-1.01.1-.37,0-.73-.04-1.07-.12s-.64-.2-.9-.38c-.26-.18-.47-.42-.62-.7-.16-.3-.24-.65-.26-1.07h1.1ZM169.08,167.28h1.34v.97h-1.34v4.17c0,.13,0,.23.03.31.03.08.07.14.13.18.06.04.14.07.25.09.11,0,.26.01.43.01h.51v.98h-.85c-.29,0-.53-.02-.74-.05-.2-.04-.36-.12-.49-.22-.12-.1-.21-.25-.27-.44-.06-.19-.09-.44-.09-.75v-4.28h-1.14v-.97h1.14v-2.01h1.1v2.01ZM175.27,167.28h1.04v.99h.03c.5-.76,1.23-1.14,2.17-1.14.42,0,.79.09,1.13.26.34.17.58.47.71.88.23-.36.52-.65.88-.85.37-.2.78-.3,1.22-.3.34,0,.64.04.91.12.28.07.51.18.7.34.2.16.35.36.46.61.11.24.17.54.17.88v4.93h-1.11v-4.41c0-.21-.02-.4-.05-.59-.04-.18-.1-.34-.2-.47-.1-.14-.23-.25-.4-.32-.16-.08-.38-.12-.65-.12-.55,0-.98.16-1.29.47-.31.31-.47.73-.47,1.25v4.19h-1.1v-4.41c0-.22-.02-.42-.07-.6-.04-.18-.1-.34-.2-.47-.1-.14-.23-.24-.39-.31-.16-.08-.36-.12-.61-.12-.32,0-.6.06-.83.19-.23.13-.41.29-.56.47-.14.18-.24.37-.31.57-.06.19-.09.35-.09.48v4.19h-1.1v-6.72ZM191.02,170c-.02-.26-.08-.51-.18-.74-.1-.23-.23-.43-.4-.6-.16-.17-.36-.31-.6-.4-.23-.1-.48-.16-.75-.16s-.55.05-.78.16c-.23.1-.42.23-.59.4-.16.17-.29.38-.39.61-.1.22-.15.47-.17.73h3.86ZM192.08,171.87c-.15.75-.47,1.32-.97,1.7-.5.38-1.14.57-1.9.57-.54,0-1.01-.09-1.4-.26-.39-.17-.72-.42-.99-.73-.27-.31-.47-.68-.61-1.12-.13-.43-.2-.91-.22-1.42,0-.51.08-.98.23-1.4.16-.43.37-.79.65-1.11.29-.31.62-.55,1-.73.39-.17.81-.26,1.27-.26.6,0,1.09.13,1.48.38.4.24.71.55.95.94.24.38.41.8.49,1.25.1.45.13.88.12,1.29h-5.03c0,.3.03.58.1.85.08.26.2.49.38.7.17.2.39.36.66.48.27.12.58.18.95.18.47,0,.85-.11,1.14-.32.3-.22.5-.55.6-.99h1.09ZM194.01,171.88c0,.24.07.45.17.62.1.16.24.3.4.4.17.1.36.16.57.21.22.04.44.07.66.07.17,0,.35-.01.55-.04.19-.03.36-.07.52-.14.17-.07.3-.17.4-.3.1-.14.16-.31.16-.52,0-.29-.11-.5-.33-.65-.22-.15-.49-.26-.82-.35-.32-.1-.67-.18-1.05-.25-.38-.08-.74-.18-1.07-.31-.32-.14-.59-.33-.81-.57-.22-.24-.32-.58-.32-1.01,0-.34.07-.63.22-.87.16-.24.35-.44.59-.58.24-.16.51-.27.81-.34.3-.08.6-.12.9-.12.38,0,.73.04,1.05.1.32.06.6.17.85.34.25.16.45.37.6.65.15.27.23.61.26,1.01h-1.11c-.02-.22-.07-.39-.17-.53-.1-.15-.22-.26-.36-.35-.15-.09-.31-.15-.49-.18-.17-.04-.35-.06-.53-.06-.16,0-.33.01-.51.04-.16.03-.32.07-.46.14-.14.06-.25.15-.34.26-.09.1-.13.24-.13.42,0,.19.06.35.19.48.14.12.31.23.52.31.21.08.44.15.7.21.26.05.52.11.78.17.28.06.55.13.81.22.27.09.5.2.7.35.21.14.37.32.49.53.13.22.2.49.2.81,0,.41-.09.74-.26,1.01-.16.27-.39.49-.66.65-.27.16-.58.28-.92.34-.34.07-.68.1-1.01.1-.37,0-.73-.04-1.07-.12-.34-.08-.64-.2-.9-.38-.26-.18-.47-.42-.62-.7-.16-.3-.24-.65-.26-1.07h1.1ZM200.51,171.88c0,.24.07.45.17.62.1.16.24.3.4.4.17.1.36.16.57.21.22.04.44.07.66.07.17,0,.35-.01.55-.04.19-.03.36-.07.52-.14.17-.07.3-.17.4-.3.1-.14.16-.31.16-.52,0-.29-.11-.5-.33-.65-.22-.15-.49-.26-.82-.35-.32-.1-.67-.18-1.05-.25-.38-.08-.74-.18-1.07-.31-.32-.14-.59-.33-.81-.57-.22-.24-.32-.58-.32-1.01,0-.34.07-.63.22-.87.16-.24.35-.44.59-.58.24-.16.51-.27.81-.34.3-.08.6-.12.9-.12.38,0,.73.04,1.05.1.32.06.6.17.85.34.25.16.45.37.6.65.15.27.23.61.26,1.01h-1.11c-.02-.22-.07-.39-.17-.53-.1-.15-.22-.26-.36-.35-.15-.09-.31-.15-.49-.18-.17-.04-.35-.06-.53-.06-.16,0-.33.01-.51.04-.16.03-.32.07-.46.14-.14.06-.25.15-.34.26-.09.1-.13.24-.13.42,0,.19.06.35.19.48.14.12.31.23.52.31.21.08.44.15.7.21.26.05.52.11.78.17.28.06.55.13.81.22.27.09.5.2.7.35.21.14.37.32.49.53.13.22.2.49.2.81,0,.41-.09.74-.26,1.01-.16.27-.39.49-.66.65-.27.16-.58.28-.92.34-.34.07-.68.1-1.01.1-.37,0-.73-.04-1.07-.12-.34-.08-.64-.2-.9-.38-.26-.18-.47-.42-.62-.7-.16-.3-.24-.65-.26-1.07h1.1ZM212.29,173.97c-.19.11-.46.17-.79.17-.29,0-.52-.08-.69-.23-.17-.16-.25-.43-.25-.79-.3.36-.66.63-1.07.79-.4.16-.83.23-1.3.23-.3,0-.59-.04-.87-.1-.27-.07-.5-.18-.7-.32-.2-.15-.36-.34-.48-.57-.11-.24-.17-.53-.17-.87,0-.38.07-.69.19-.94.13-.24.3-.44.51-.59.22-.16.46-.27.73-.35.28-.08.56-.14.85-.2.3-.06.59-.1.86-.13.28-.04.52-.08.73-.13.21-.06.37-.14.49-.25.12-.11.18-.27.18-.48,0-.24-.05-.44-.14-.59-.09-.15-.2-.26-.35-.34-.14-.08-.3-.13-.48-.16-.17-.03-.35-.04-.52-.04-.47,0-.86.09-1.17.27-.31.17-.48.51-.51,1h-1.1c.02-.42.1-.77.26-1.05.16-.29.36-.52.62-.69.26-.18.55-.31.88-.39.34-.08.7-.12,1.08-.12.3,0,.6.02.9.07.3.04.58.13.82.27.24.13.44.32.58.56.15.24.22.56.22.95v3.46c0,.26.01.45.04.57.04.12.14.18.31.18.1,0,.21-.02.34-.07v.86ZM210.49,170.53c-.14.1-.32.18-.55.23-.23.04-.46.08-.71.12-.24.03-.49.06-.74.1-.25.04-.48.1-.68.18s-.36.21-.49.38c-.12.16-.18.37-.18.65,0,.18.04.34.1.47.08.12.17.22.29.3.12.08.26.13.42.17.16.04.32.05.49.05.36,0,.68-.05.94-.14.26-.1.47-.23.64-.38.16-.16.29-.32.36-.49.08-.18.12-.35.12-.51v-1.13ZM219.11,173.43c0,1.1-.25,1.92-.75,2.47-.5.55-1.29.82-2.37.82-.31,0-.63-.03-.96-.1-.32-.07-.62-.18-.88-.34-.26-.16-.48-.36-.65-.61-.17-.25-.27-.56-.29-.92h1.1c0,.2.07.37.18.51.12.14.26.25.43.34.17.09.36.15.56.18.2.04.39.06.57.06.36,0,.67-.06.92-.19.25-.12.46-.29.62-.52.16-.22.28-.48.35-.79.08-.31.12-.65.12-1.03v-.44h-.03c-.19.42-.48.72-.87.92-.38.19-.79.29-1.22.29-.5,0-.94-.09-1.31-.27-.37-.18-.68-.43-.94-.73-.25-.31-.44-.67-.57-1.08-.12-.42-.18-.85-.18-1.31,0-.4.05-.81.16-1.22.1-.43.28-.81.52-1.14.24-.35.56-.63.96-.85.4-.23.89-.34,1.47-.34.42,0,.81.1,1.17.29.35.18.63.46.83.83h.01v-.96h1.04v6.15ZM216.02,173.1c.36,0,.67-.07.92-.22.26-.16.47-.36.62-.6.16-.25.27-.53.34-.85.08-.31.12-.62.12-.94,0-.3-.04-.59-.1-.87-.07-.29-.18-.54-.34-.77-.15-.23-.34-.42-.58-.56-.24-.14-.54-.21-.88-.21s-.66.07-.91.21c-.25.13-.46.31-.62.53-.16.22-.27.49-.35.78-.07.29-.1.6-.1.92,0,.3.03.61.09.91.06.3.16.58.31.83.15.24.34.44.58.6.24.15.55.22.91.22ZM225.45,170c-.02-.26-.08-.51-.18-.74-.1-.23-.23-.43-.4-.6-.16-.17-.36-.31-.6-.4-.23-.1-.48-.16-.75-.16s-.55.05-.78.16c-.23.1-.42.23-.59.4-.16.17-.29.38-.39.61-.1.22-.15.47-.17.73h3.86ZM226.51,171.87c-.15.75-.47,1.32-.97,1.7-.5.38-1.14.57-1.9.57-.54,0-1-.09-1.4-.26-.39-.17-.72-.42-.99-.73-.27-.31-.47-.68-.61-1.12-.13-.43-.2-.91-.22-1.42,0-.51.08-.98.23-1.4.16-.43.37-.79.65-1.11.29-.31.62-.55,1-.73.39-.17.81-.26,1.27-.26.6,0,1.09.13,1.48.38.4.24.71.55.95.94.24.38.41.8.49,1.25.1.45.14.88.12,1.29h-5.03c0,.3.03.58.1.85.08.26.2.49.38.7.17.2.4.36.66.48.27.12.58.18.95.18.47,0,.85-.11,1.14-.32.3-.22.5-.55.6-.99h1.09Z"/>
    <path class="st11" d="M491.33,172.54l-3.54-3.54,3.54-3.54-1.41-1.41-3.54,3.54-3.54-3.54-1.42,1.41,3.54,3.54-3.54,3.54,1.42,1.41,3.54-3.54,3.54,3.54,1.41-1.41Z"/>
  </g>
  <rect class="st4" x="44.38" y="66" width="123" height="40" rx="2" ry="2"/>
  <path class="st10" d="M137.59,91v-8.67h1.59l4.73,6.46-.51,1.04v-7.5h1.65v8.67h-1.44l-4.84-6.5.47-.79v7.29h-1.65Z"/>
  <path class="st10" d="M131.2,91.16c-.86,0-1.6-.16-2.22-.48-.62-.33-1.09-.82-1.42-1.48-.33-.67-.49-1.51-.49-2.52,0-1.48.36-2.6,1.07-3.35.72-.76,1.74-1.14,3.07-1.14.86,0,1.59.16,2.21.49.62.32,1.1.81,1.43,1.48.33.66.49,1.49.49,2.51,0,1.48-.36,2.6-1.08,3.37-.71.75-1.73,1.13-3.06,1.13ZM131.2,89.67c.51,0,.94-.1,1.27-.3.35-.2.61-.52.78-.96.17-.45.26-1.04.26-1.76s-.09-1.31-.26-1.74c-.17-.44-.43-.76-.78-.96-.34-.2-.76-.3-1.27-.3s-.94.1-1.29.31c-.34.2-.59.52-.77.96-.17.43-.26,1.01-.26,1.74s.09,1.31.26,1.76c.17.43.43.75.77.95.35.2.77.3,1.29.3Z"/>
  <path class="st10" d="M121.16,91v-7.25h-2.61v-1.42h7.02v1.42h-2.64v7.25h-1.77Z"/>
  <path class="st10" d="M112.88,91v-7.25h-2.61v-1.42h7.02v1.42h-2.64v7.25h-1.77Z"/>
  <path class="st10" d="M104.8,91.22c-1.26,0-2.21-.29-2.86-.87-.64-.59-.96-1.48-.96-2.68v-5.34h1.83v5.29c0,.75.16,1.3.47,1.65.31.36.79.53,1.44.53.62,0,1.09-.18,1.42-.53.34-.36.51-.91.51-1.65v-5.29h1.69v5.34c0,.8-.15,1.46-.44,1.99-.29.53-.71.92-1.24,1.18-.53.25-1.15.38-1.86.38Z"/>
  <path class="st10" d="M91.75,91v-8.67h3.44c.67,0,1.23.09,1.68.26.45.17.79.44,1.03.79.23.35.35.79.35,1.33,0,.38-.09.69-.26.94-.16.24-.36.44-.6.58-.23.14-.46.26-.66.36l-.21-.38c.41.04.78.16,1.11.34.33.17.59.42.79.73.2.31.3.69.3,1.14,0,.6-.14,1.09-.42,1.47-.28.37-.66.65-1.14.83-.49.18-1.03.27-1.64.27h-3.77ZM93.53,89.58h1.91c.26,0,.5-.03.71-.1.23-.07.41-.19.55-.38.14-.18.21-.43.21-.75,0-.24-.04-.44-.13-.58-.09-.16-.2-.27-.35-.35-.14-.09-.3-.14-.48-.17-.18-.03-.36-.05-.55-.05h-1.87v2.39ZM93.52,85.84h1.82c.19,0,.37-.03.53-.08.17-.06.31-.16.42-.3.11-.15.17-.35.17-.61,0-.42-.12-.71-.35-.87-.23-.16-.52-.23-.88-.23h-1.7v2.09Z"/>
  <path class="st10" d="M80.69,91v-3.82l-3.28-4.85h2.17l2.55,4.12-.78-.03,2.37-4.1h1.82l-3.34,5.29.26-.96v4.34h-1.77Z"/>
  <path class="st10" d="M66.7,91v-8.67h1.82l3.04,4.37-.99.07,3.17-4.43h1.78v8.67h-1.77v-7.27l.4.47-3.13,4.25-3.04-4.26.42-.36v7.18h-1.7Z"/>
  <path class="st5" d="M230.38,75h16c6.08,0,11,4.92,11,11h0c0,6.08-4.92,11-11,11h-16c-6.08,0-11-4.92-11-11h0c0-6.08,4.92-11,11-11Z"/>
  <circle class="st8" cx="246.38" cy="86" r="10.5"/>
  <path class="st6" d="M244.38,88.59l-3.29-3.29-1.41,1.41,4.71,4.71,8.71-8.71-1.41-1.41-7.29,7.29Z"/>
  <path class="st10" d="M275.76,84.43c-.07-.67-.31-1.15-.73-1.44-.41-.3-.93-.45-1.57-.45-.26,0-.52.03-.77.08-.25.05-.48.14-.68.26-.19.12-.35.29-.47.49-.11.2-.17.45-.17.75,0,.29.08.52.25.7.17.17.4.32.68.43.29.11.61.21.96.29.36.07.71.15,1.08.23.37.09.74.19,1.09.31.35.11.67.27.95.47.29.2.51.45.68.75.17.3.26.68.26,1.14,0,.49-.11.92-.34,1.27-.22.35-.5.63-.85.86-.35.22-.74.37-1.17.47-.42.1-.85.16-1.27.16-.52,0-1.01-.07-1.48-.19-.46-.13-.87-.32-1.22-.58-.35-.27-.62-.61-.83-1.01-.2-.42-.3-.91-.3-1.47h1.17c0,.39.07.73.22,1.01.16.28.35.51.6.69.25.18.54.32.87.4s.67.13,1.01.13c.28,0,.55-.03.83-.08.29-.05.54-.14.77-.26.22-.13.41-.3.55-.52.14-.22.21-.49.21-.83s-.09-.58-.26-.78c-.17-.2-.39-.36-.68-.48-.28-.13-.59-.23-.95-.31s-.72-.16-1.09-.23c-.36-.09-.72-.18-1.08-.29-.36-.11-.68-.26-.96-.43-.28-.18-.5-.41-.68-.69-.17-.29-.25-.64-.25-1.07,0-.47.1-.87.29-1.21.19-.35.44-.63.75-.84.32-.23.68-.39,1.08-.49.41-.11.82-.17,1.25-.17.48,0,.92.06,1.33.17.41.11.76.29,1.07.53.31.24.55.55.73.92.18.36.28.8.3,1.31h-1.17ZM285.3,91h-1.17l-1.36-5.34h-.03l-1.35,5.34h-1.2l-2.16-6.72h1.22l1.52,5.5h.03l1.35-5.5h1.21l1.4,5.5h.03l1.51-5.5h1.14l-2.14,6.72ZM289.66,83.07h-1.1v-1.35h1.1v1.35ZM288.56,84.28h1.1v6.72h-1.1v-6.72ZM292.91,84.28h1.34v.97h-1.34v4.17c0,.13,0,.23.03.31.03.08.07.14.13.18.06.04.14.07.25.09.11,0,.26.01.43.01h.51v.97h-.85c-.29,0-.53-.02-.74-.05-.2-.04-.36-.12-.49-.22-.12-.1-.21-.25-.27-.44-.06-.19-.09-.44-.09-.75v-4.28h-1.14v-.97h1.14v-2.01h1.1v2.01ZM300.04,86.44c-.09-.42-.27-.75-.55-.99-.28-.23-.65-.35-1.12-.35-.4,0-.73.07-1,.22-.27.15-.49.34-.65.58-.16.24-.27.52-.34.85-.07.31-.1.64-.1.97,0,.31.03.62.1.91.08.29.19.56.35.79.16.23.36.41.61.55.25.14.55.21.9.21.55,0,.97-.14,1.27-.43.31-.29.5-.69.57-1.21h1.13c-.12.83-.43,1.47-.94,1.92-.49.45-1.17.68-2.03.68-.51,0-.97-.08-1.36-.25-.39-.16-.72-.4-.99-.7-.26-.3-.46-.66-.6-1.08-.13-.42-.2-.89-.2-1.39s.07-.97.2-1.4c.13-.44.33-.82.58-1.14.27-.33.6-.58,1-.77.4-.19.86-.29,1.39-.29.38,0,.74.05,1.07.14.34.09.63.23.88.42.26.19.47.43.64.73.16.29.27.63.31,1.03h-1.14ZM302.46,81.72h1.11v3.55h.03c.09-.21.21-.38.36-.52.16-.15.33-.26.52-.35.2-.1.4-.16.61-.21.22-.04.42-.07.62-.07.44,0,.81.06,1.11.18.29.12.53.29.71.51.18.22.31.48.38.78.08.29.12.62.12.99v4.42h-1.11v-4.55c0-.42-.12-.75-.36-.99-.24-.24-.58-.36-1-.36-.34,0-.63.05-.88.16-.24.1-.45.25-.61.44-.17.19-.29.42-.38.68-.08.25-.12.53-.12.83v3.8h-1.11v-9.28ZM313.36,81.72h1.11v9.28h-1.11v-9.28ZM322.13,90.97c-.19.11-.46.17-.79.17-.29,0-.52-.08-.69-.23-.16-.16-.25-.43-.25-.79-.3.36-.66.63-1.07.79-.4.16-.83.23-1.3.23-.3,0-.59-.03-.87-.1-.27-.07-.5-.18-.7-.33-.2-.15-.36-.34-.48-.57-.11-.24-.17-.53-.17-.87,0-.38.07-.69.2-.94s.3-.44.51-.58c.22-.16.46-.27.73-.35.28-.08.56-.14.85-.19.3-.06.59-.1.86-.13.28-.03.52-.08.73-.13.21-.06.37-.14.49-.25.12-.11.18-.27.18-.48,0-.24-.05-.44-.14-.59-.09-.15-.2-.26-.35-.34-.14-.08-.3-.13-.48-.16-.17-.03-.35-.04-.52-.04-.47,0-.86.09-1.17.27-.31.17-.48.51-.51,1h-1.11c.02-.42.1-.77.26-1.05s.36-.52.62-.69c.26-.18.55-.31.88-.39.34-.08.7-.12,1.08-.12.3,0,.6.02.9.07.3.04.58.13.82.27.24.13.44.32.59.56.15.24.22.56.22.95v3.46c0,.26.01.45.04.57.03.12.14.18.31.18.1,0,.21-.02.34-.07v.86ZM320.34,87.53c-.14.1-.32.18-.55.23-.23.04-.46.08-.71.12-.24.03-.49.06-.74.1-.25.03-.48.1-.68.18-.2.09-.36.21-.49.38-.12.16-.18.37-.18.65,0,.18.03.34.1.47.08.12.17.22.29.3.12.08.26.13.42.17s.32.05.49.05c.36,0,.68-.05.94-.14.26-.1.47-.23.64-.38.16-.16.29-.32.36-.49.08-.18.12-.35.12-.51v-1.13ZM323.2,81.72h1.11v3.47h.03c.18-.37.47-.64.86-.81.39-.17.82-.26,1.29-.26.52,0,.97.1,1.35.29.39.19.71.45.96.78.26.32.46.69.58,1.12.13.42.2.88.2,1.35s-.07.93-.2,1.35c-.12.42-.31.8-.57,1.12-.25.31-.57.56-.96.74-.38.18-.83.27-1.34.27-.17,0-.35-.02-.56-.05-.2-.03-.4-.09-.6-.17-.2-.08-.39-.18-.57-.31-.17-.14-.32-.31-.44-.51h-.03v.9h-1.11v-9.28ZM328.4,87.58c0-.31-.04-.62-.13-.91-.08-.3-.2-.57-.38-.81-.16-.23-.38-.42-.65-.56-.26-.14-.57-.21-.92-.21-.37,0-.69.07-.95.22-.26.15-.47.34-.64.58-.17.23-.29.5-.36.81-.07.3-.1.61-.1.92,0,.33.04.65.12.96.08.3.2.57.36.81.17.23.39.42.66.57.27.14.59.21.98.21s.7-.07.95-.22c.26-.15.47-.34.62-.58s.27-.52.34-.83c.07-.31.1-.63.1-.96ZM335.54,87c-.02-.26-.08-.51-.18-.74-.1-.23-.23-.43-.4-.6-.16-.17-.36-.31-.6-.4-.23-.1-.48-.16-.75-.16s-.55.05-.78.16c-.23.1-.42.23-.58.4-.16.17-.29.38-.39.61-.1.23-.15.47-.17.73h3.86ZM336.6,88.87c-.15.75-.47,1.32-.98,1.7-.5.38-1.13.57-1.9.57-.54,0-1.01-.09-1.4-.26-.39-.17-.72-.42-.99-.73-.27-.31-.47-.68-.61-1.12-.13-.43-.2-.91-.22-1.42,0-.51.08-.98.23-1.4.16-.42.37-.79.65-1.11.29-.31.62-.55,1-.73.39-.17.82-.26,1.27-.26.6,0,1.09.13,1.48.38.4.24.71.55.95.94.24.38.41.8.49,1.25.1.45.14.88.12,1.29h-5.03c0,.29.03.58.1.85.08.26.2.49.38.7.17.2.39.36.66.48.27.12.58.18.95.18.47,0,.85-.11,1.14-.32.3-.22.5-.55.6-.99h1.09ZM337.92,81.72h1.11v9.28h-1.11v-9.28Z"/>
  <path class="st15" d="M116.38,277c0-14.36-11.64-26-26-26s-26,11.64-26,26,11.64,26,26,26v12c-20.99,0-38-17.01-38-38s17.01-38,38-38,38,17.01,38,38-17.01,38-38,38v-12c14.36,0,26-11.64,26-26Z"/>
  <path class="st3" d="M90.38,239c4.99,0,9.93.98,14.54,2.89,4.61,1.91,8.8,4.71,12.33,8.24,3.53,3.53,6.33,7.72,8.24,12.33,1.91,4.61,2.89,9.55,2.89,14.54h-12c0-3.41-.67-6.8-1.98-9.95-1.31-3.15-3.22-6.02-5.64-8.43s-5.28-4.33-8.43-5.64c-3.15-1.31-6.54-1.98-9.95-1.98v-12Z"/>
  <path class="st10" d="M193.32,258.09h1.59c.23,0,.46-.02.68-.05.22-.04.41-.1.57-.2.16-.1.29-.25.39-.43.1-.18.16-.42.16-.71s-.05-.53-.16-.72c-.1-.18-.23-.32-.39-.42-.17-.1-.35-.17-.57-.21-.22-.04-.44-.05-.68-.05h-1.59v2.78ZM191.28,253.72h4.19c.58,0,1.08.09,1.48.26.41.17.74.39.99.66.26.28.45.59.56.95.12.36.18.72.18,1.11s-.06.74-.18,1.1c-.11.36-.3.67-.56.95-.25.28-.58.5-.99.68-.41.17-.9.25-1.48.25h-2.14v3.33h-2.04v-9.28ZM199.75,256.28h1.76v1.25h.03c.09-.21.2-.4.35-.57.15-.18.32-.33.51-.45.19-.13.39-.23.61-.3s.44-.1.68-.1c.12,0,.26.02.4.07v1.72c-.09-.02-.19-.03-.31-.04-.12-.02-.24-.03-.35-.03-.34,0-.62.06-.86.17s-.43.27-.57.47c-.14.19-.24.42-.3.68-.06.26-.09.54-.09.85v3.03h-1.85v-6.72ZM206.21,259.65c0,.27.03.53.08.79.05.25.14.48.26.69.13.2.3.36.51.48.21.12.47.18.78.18s.57-.06.78-.18c.22-.12.39-.28.51-.48.13-.21.22-.44.27-.69.05-.26.08-.52.08-.79s-.03-.53-.08-.79-.14-.49-.27-.69c-.12-.2-.29-.36-.51-.48-.21-.13-.47-.2-.78-.2s-.57.07-.78.2c-.21.12-.38.28-.51.48-.12.2-.21.43-.26.69s-.08.52-.08.79ZM204.37,259.65c0-.54.08-1.02.25-1.46.17-.44.4-.82.7-1.12.3-.31.67-.55,1.09-.71.43-.17.9-.26,1.43-.26s1,.09,1.43.26c.43.17.8.4,1.1.71.3.3.54.68.7,1.12.16.43.25.92.25,1.46s-.08,1.02-.25,1.46c-.17.43-.4.81-.7,1.12-.3.3-.67.54-1.1.7-.43.17-.9.25-1.43.25s-1.01-.08-1.43-.25-.79-.4-1.09-.7c-.3-.31-.54-.68-.7-1.12-.16-.43-.25-.92-.25-1.46ZM215.65,261.41c.26,0,.49-.05.69-.16.2-.1.36-.24.49-.42.13-.17.23-.37.29-.59.07-.22.1-.46.1-.7,0-.28-.03-.54-.08-.78-.05-.25-.14-.47-.26-.66-.12-.19-.28-.34-.48-.45-.2-.11-.45-.17-.75-.17-.26,0-.48.05-.68.16-.18.1-.34.25-.47.43-.12.17-.21.38-.27.61-.05.23-.08.46-.08.71s.02.49.07.73c.05.23.13.45.25.64.12.19.28.35.47.47.19.12.43.18.71.18ZM218.98,262.57c0,.27-.04.58-.12.92-.07.35-.23.67-.47.96-.24.3-.59.56-1.05.77-.46.21-1.07.31-1.85.31-.33,0-.67-.04-1.01-.13-.34-.08-.65-.2-.94-.38-.28-.17-.51-.4-.7-.68-.18-.27-.29-.59-.31-.97h1.83c.09.35.26.58.51.71.25.14.54.21.87.21.52,0,.9-.16,1.13-.47.24-.31.36-.71.35-1.18v-.88h-.03c-.2.35-.49.62-.86.79-.36.16-.75.25-1.16.25-.5,0-.94-.09-1.3-.26-.36-.18-.66-.43-.9-.73-.23-.31-.41-.67-.52-1.08-.1-.42-.16-.85-.16-1.31,0-.43.06-.85.18-1.25.13-.41.32-.76.56-1.07.24-.31.54-.56.9-.74.36-.18.78-.27,1.25-.27.44,0,.83.08,1.16.25.34.17.62.44.85.83h.03v-.9h1.75v6.29ZM220.47,256.28h1.76v1.25h.03c.09-.21.2-.4.35-.57.15-.18.32-.33.51-.45.19-.13.39-.23.61-.3.22-.07.44-.1.68-.1.12,0,.25.02.4.07v1.72c-.09-.02-.19-.03-.31-.04-.12-.02-.24-.03-.35-.03-.34,0-.62.06-.86.17-.23.11-.42.27-.57.47-.14.19-.24.42-.3.68-.06.26-.09.54-.09.85v3.03h-1.85v-6.72ZM229.82,258.92c-.09-.47-.24-.82-.47-1.07-.22-.24-.55-.36-1-.36-.29,0-.54.05-.74.16-.19.1-.35.22-.47.36-.11.15-.19.3-.25.47-.04.16-.07.31-.08.44h3ZM226.82,260.09c.03.6.18,1.03.46,1.3.28.27.68.4,1.2.4.37,0,.69-.09.96-.27.27-.19.43-.39.49-.6h1.62c-.26.81-.66,1.38-1.2,1.73-.54.35-1.19.52-1.95.52-.53,0-1-.08-1.43-.25-.43-.17-.78-.42-1.08-.73-.3-.31-.52-.68-.69-1.12-.16-.43-.23-.91-.23-1.43s.08-.97.25-1.4c.17-.43.4-.81.7-1.12.3-.32.66-.57,1.08-.75.43-.18.89-.27,1.4-.27.57,0,1.07.11,1.5.34.42.22.77.51,1.04.88.28.37.48.8.6,1.27.12.48.16.98.13,1.5h-4.85ZM234.19,260.82c0,.2.04.37.12.52.09.14.2.26.33.35.13.09.28.15.44.19.17.04.35.07.53.07.13,0,.26-.01.4-.04.15-.04.28-.08.39-.14.12-.07.22-.16.3-.26.08-.11.12-.25.12-.42,0-.28-.19-.48-.56-.62-.36-.14-.88-.28-1.53-.42-.27-.06-.53-.13-.79-.21-.25-.09-.48-.2-.68-.33-.2-.14-.36-.31-.48-.51-.12-.21-.18-.46-.18-.75,0-.43.08-.79.25-1.07.17-.28.4-.49.68-.65.28-.17.59-.28.94-.34.35-.07.7-.1,1.07-.1s.72.04,1.05.1c.35.07.65.19.92.35.27.17.49.39.66.66.18.27.29.61.32,1.03h-1.76c-.03-.36-.16-.59-.4-.71-.24-.13-.53-.2-.86-.2-.1,0-.22,0-.34.03-.12,0-.23.04-.34.08-.1.04-.18.11-.25.2-.07.08-.1.19-.1.32,0,.17.06.3.18.4.12.1.28.19.47.26.2.06.42.12.68.17.25.05.51.11.77.17.27.06.53.13.78.22.26.09.49.2.69.35.2.14.36.32.48.53.12.21.18.47.18.78,0,.44-.09.82-.27,1.12-.17.3-.4.53-.69.71-.29.18-.62.31-.99.38-.36.08-.74.12-1.12.12s-.77-.04-1.14-.12c-.37-.08-.71-.21-1-.39-.29-.18-.53-.42-.72-.71-.18-.3-.28-.68-.3-1.13h1.76ZM241.17,260.82c0,.2.04.37.12.52.09.14.19.26.32.35.13.09.28.15.44.19.17.04.35.07.53.07.13,0,.26-.01.4-.04.15-.04.28-.08.39-.14.12-.07.22-.16.3-.26.08-.11.12-.25.12-.42,0-.28-.19-.48-.56-.62-.36-.14-.88-.28-1.53-.42-.27-.06-.53-.13-.79-.21-.25-.09-.48-.2-.68-.33-.2-.14-.36-.31-.48-.51-.12-.21-.18-.46-.18-.75,0-.43.08-.79.25-1.07.17-.28.4-.49.68-.65.28-.17.59-.28.94-.34.35-.07.7-.1,1.07-.1s.71.04,1.05.1c.35.07.65.19.92.35s.49.39.66.66c.18.27.29.61.32,1.03h-1.75c-.03-.36-.16-.59-.4-.71-.24-.13-.53-.2-.86-.2-.1,0-.22,0-.34.03-.12,0-.23.04-.34.08-.1.04-.18.11-.25.2-.07.08-.1.19-.1.32,0,.17.06.3.18.4s.28.19.47.26c.2.06.43.12.68.17.25.05.51.11.77.17.27.06.53.13.78.22.26.09.49.2.69.35.2.14.36.32.48.53.12.21.18.47.18.78,0,.44-.09.82-.27,1.12-.17.3-.4.53-.69.71-.29.18-.61.31-.99.38-.36.08-.74.12-1.12.12s-.77-.04-1.14-.12-.71-.21-1-.39c-.29-.18-.52-.42-.71-.71-.18-.3-.28-.68-.3-1.13h1.76ZM252.58,257.48h2.07c.36,0,.66-.09.9-.26.23-.17.35-.45.35-.85,0-.22-.04-.39-.12-.53-.08-.14-.18-.25-.31-.33-.13-.08-.28-.13-.46-.16-.16-.04-.34-.05-.52-.05h-1.91v2.17ZM250.54,253.72h4.37c.44,0,.85.04,1.21.12.36.08.68.21.94.39.26.17.46.41.6.7.15.29.22.66.22,1.09,0,.47-.11.86-.33,1.17-.21.31-.52.57-.94.77.57.17,1,.46,1.27.87.29.41.43.9.43,1.48,0,.47-.09.88-.27,1.22-.18.34-.43.61-.74.83-.3.22-.65.38-1.05.48-.39.1-.79.16-1.21.16h-4.5v-9.28ZM252.58,261.41h2.18c.2,0,.39-.02.57-.05.18-.04.34-.11.48-.2.14-.1.25-.22.32-.38.09-.16.13-.36.13-.6,0-.48-.13-.81-.4-1.01-.27-.21-.62-.31-1.07-.31h-2.22v2.55ZM259.42,258.35c.03-.43.13-.79.33-1.08.19-.29.43-.52.73-.69.29-.17.62-.3.99-.36.37-.08.75-.12,1.12-.12.34,0,.68.03,1.03.08.35.04.66.13.95.27.29.14.52.33.7.58.18.24.27.57.27.98v3.5c0,.3.02.59.05.87s.1.48.18.62h-1.87c-.03-.1-.06-.21-.09-.31-.02-.11-.03-.22-.04-.34-.3.3-.64.52-1.04.64-.4.12-.81.18-1.22.18-.32,0-.62-.04-.9-.12-.28-.08-.52-.2-.73-.36-.21-.16-.37-.37-.49-.62-.11-.25-.17-.55-.17-.9,0-.38.07-.69.2-.94.14-.25.31-.45.52-.6.22-.15.46-.26.73-.32.28-.08.56-.14.83-.18.28-.04.55-.08.82-.1.27-.03.51-.07.72-.12.21-.05.37-.13.49-.22.12-.1.18-.25.17-.44,0-.2-.04-.36-.1-.47-.06-.12-.15-.21-.26-.27-.1-.07-.23-.11-.38-.13-.14-.03-.29-.04-.46-.04-.36,0-.65.08-.86.23-.21.16-.33.42-.36.78h-1.85ZM263.68,259.71c-.08.07-.18.13-.3.17-.11.04-.24.07-.38.09-.13.03-.27.05-.42.07s-.3.04-.44.07c-.14.03-.28.06-.42.1-.13.04-.25.1-.35.18-.1.07-.17.16-.23.27s-.09.26-.09.43.03.3.09.42.14.2.25.27c.1.06.22.1.36.13s.28.04.43.04c.36,0,.65-.06.85-.18.2-.12.35-.26.44-.43.1-.17.15-.35.17-.52.03-.17.04-.31.04-.42v-.69ZM266.96,256.28h1.76v1.25h.03c.09-.21.2-.4.35-.57.15-.18.32-.33.51-.45.19-.13.39-.23.61-.3s.44-.1.68-.1c.12,0,.26.02.4.07v1.72c-.09-.02-.19-.03-.31-.04-.12-.02-.24-.03-.35-.03-.34,0-.62.06-.86.17-.23.11-.43.27-.57.47-.14.19-.24.42-.3.68-.06.26-.09.54-.09.85v3.03h-1.85v-6.72ZM275.83,253.72h2.04v7.57h4.52v1.72h-6.57v-9.28ZM283.26,258.35c.03-.43.13-.79.32-1.08.19-.29.43-.52.73-.69.3-.17.62-.3.99-.36.37-.08.74-.12,1.12-.12.34,0,.68.03,1.03.08.35.04.66.13.95.27.29.14.52.33.7.58.18.24.27.57.27.98v3.5c0,.3.02.59.05.87s.1.48.18.62h-1.87c-.04-.1-.07-.21-.09-.31-.02-.11-.03-.22-.04-.34-.29.3-.64.52-1.04.64-.4.12-.81.18-1.22.18-.32,0-.62-.04-.9-.12s-.52-.2-.73-.36c-.21-.16-.37-.37-.49-.62-.11-.25-.17-.55-.17-.9,0-.38.07-.69.2-.94.14-.25.31-.45.52-.6.22-.15.46-.26.73-.32.28-.08.55-.14.83-.18s.55-.08.82-.1.51-.07.71-.12.37-.13.49-.22c.12-.1.18-.25.17-.44,0-.2-.04-.36-.1-.47-.06-.12-.15-.21-.26-.27-.1-.07-.23-.11-.38-.13-.14-.03-.29-.04-.45-.04-.36,0-.65.08-.86.23-.21.16-.33.42-.36.78h-1.85ZM287.52,259.71c-.08.07-.18.13-.3.17-.11.04-.24.07-.38.09-.13.03-.27.05-.42.07s-.3.04-.44.07c-.14.03-.28.06-.42.1-.13.04-.25.1-.35.18-.1.07-.17.16-.23.27-.06.11-.09.26-.09.43s.03.3.09.42c.06.11.14.2.25.27.1.06.23.1.36.13.14.03.28.04.43.04.36,0,.65-.06.85-.18.2-.12.35-.26.44-.43.1-.17.15-.35.17-.52.03-.17.04-.31.04-.42v-.69ZM295.73,259.65c0-.29-.03-.56-.09-.82-.06-.26-.16-.49-.29-.69s-.3-.36-.49-.47c-.19-.12-.43-.18-.7-.18s-.5.06-.7.18c-.2.11-.36.27-.49.47s-.23.43-.29.69c-.06.26-.09.53-.09.82s.03.55.09.81c.06.26.16.49.29.69s.29.36.49.48c.2.11.43.17.7.17s.51-.06.7-.17c.2-.12.36-.28.49-.48s.23-.43.29-.69c.06-.26.09-.53.09-.81ZM290.8,253.72h1.85v3.38h.03c.23-.35.53-.6.91-.75.39-.17.79-.25,1.21-.25.34,0,.67.07,1,.21.33.14.62.35.88.64.27.29.49.65.65,1.11.16.44.25.97.25,1.59s-.08,1.15-.25,1.6c-.17.44-.38.81-.65,1.09-.26.29-.55.5-.88.64-.33.14-.66.21-1,.21-.49,0-.94-.08-1.33-.23-.39-.16-.68-.42-.88-.79h-.03v.86h-1.75v-9.28ZM303.27,258.92c-.09-.47-.24-.82-.47-1.07-.22-.24-.55-.36-1-.36-.29,0-.54.05-.74.16-.19.1-.35.22-.47.36-.11.15-.2.3-.25.47-.04.16-.07.31-.08.44h3ZM300.27,260.09c.03.6.18,1.03.45,1.3.28.27.68.4,1.2.4.37,0,.69-.09.96-.27.27-.19.43-.39.49-.6h1.62c-.26.81-.66,1.38-1.2,1.73-.54.35-1.19.52-1.95.52-.53,0-1.01-.08-1.43-.25-.43-.17-.78-.42-1.08-.73-.29-.31-.52-.68-.69-1.12-.16-.43-.23-.91-.23-1.43s.08-.97.25-1.4c.17-.43.4-.81.7-1.12.3-.32.66-.57,1.08-.75.42-.18.89-.27,1.4-.27.57,0,1.07.11,1.49.34.43.22.77.51,1.04.88.28.37.48.8.6,1.27.12.48.17.98.13,1.5h-4.85ZM306.27,253.72h1.85v9.28h-1.85v-9.28Z"/>
  <path class="st10" d="M480.34,263h-1.11v-6.6h-2.39v-.88c.31,0,.62-.02.91-.06.3-.05.56-.14.79-.27.24-.13.45-.31.61-.53.17-.23.28-.51.34-.86h.85v9.22ZM484.65,258.46c0,.35,0,.74.03,1.17.03.43.1.83.21,1.21.12.37.31.69.57.95.26.26.62.39,1.09.39s.83-.13,1.09-.39c.26-.26.45-.58.56-.95.12-.38.19-.78.21-1.21.03-.43.04-.82.04-1.17,0-.23,0-.47-.01-.74,0-.28-.02-.55-.07-.82-.04-.28-.09-.55-.17-.81-.07-.26-.18-.48-.32-.68-.14-.2-.32-.36-.53-.48-.22-.12-.48-.18-.79-.18s-.58.06-.79.18c-.22.12-.4.28-.55.48-.14.19-.25.42-.33.68-.07.26-.13.53-.17.81-.04.27-.06.54-.07.82v.74ZM483.48,258.48c0-.34,0-.69.03-1.05.02-.36.06-.72.13-1.07.07-.35.17-.68.3-.99.13-.31.31-.59.53-.82.23-.23.51-.42.85-.56.35-.14.76-.21,1.23-.21s.88.07,1.22.21c.35.14.63.32.86.56.22.23.4.51.53.82s.23.64.3.99c.07.35.11.7.13,1.07.02.36.03.71.03,1.05s0,.69-.03,1.05c-.02.36-.06.72-.13,1.07-.07.35-.17.68-.3.99-.13.3-.31.57-.53.81-.23.23-.51.42-.85.56-.34.13-.75.2-1.24.2s-.89-.07-1.23-.2c-.34-.14-.62-.33-.85-.56-.23-.23-.4-.5-.53-.81-.13-.31-.23-.64-.3-.99-.07-.35-.11-.7-.13-1.07-.02-.36-.03-.71-.03-1.05ZM491.87,258.46c0,.35,0,.74.03,1.17.03.43.1.83.21,1.21.12.37.31.69.57.95.26.26.62.39,1.09.39s.83-.13,1.09-.39c.26-.26.45-.58.56-.95.12-.38.19-.78.21-1.21.03-.43.04-.82.04-1.17,0-.23,0-.47-.01-.74,0-.28-.02-.55-.07-.82-.03-.28-.09-.55-.17-.81-.07-.26-.18-.48-.32-.68-.14-.2-.32-.36-.53-.48-.22-.12-.48-.18-.79-.18s-.58.06-.79.18c-.22.12-.4.28-.55.48-.14.19-.25.42-.32.68-.07.26-.12.53-.17.81-.03.27-.06.54-.07.82v.74ZM490.7,258.48c0-.34,0-.69.03-1.05.02-.36.06-.72.13-1.07.07-.35.17-.68.3-.99s.31-.59.53-.82c.23-.23.51-.42.85-.56.35-.14.76-.21,1.24-.21s.88.07,1.22.21c.35.14.63.32.86.56.23.23.4.51.53.82s.23.64.3.99c.07.35.11.7.13,1.07.02.36.03.71.03,1.05s0,.69-.03,1.05c-.02.36-.06.72-.13,1.07-.07.35-.17.68-.3.99-.13.3-.31.57-.53.81-.23.23-.51.42-.85.56-.34.13-.75.2-1.23.2s-.89-.07-1.24-.2c-.34-.14-.62-.33-.85-.56-.23-.23-.4-.5-.53-.81-.13-.31-.23-.64-.3-.99-.07-.35-.11-.7-.13-1.07-.02-.36-.03-.71-.03-1.05ZM499.55,256.4c0,.19,0,.4.03.62.03.22.08.42.16.61.08.18.19.34.33.47.15.12.34.18.58.18s.45-.06.6-.18.26-.27.34-.45c.09-.19.14-.4.17-.62.03-.22.04-.44.04-.64s-.01-.39-.04-.61c-.02-.23-.07-.43-.14-.61-.08-.19-.19-.35-.34-.47-.14-.13-.33-.19-.58-.19s-.44.07-.58.19c-.15.12-.26.28-.35.47-.08.18-.13.39-.16.61-.03.22-.04.42-.04.62ZM498.57,256.42c0-.36.03-.69.1-1,.07-.32.19-.6.35-.85.17-.24.38-.43.65-.57.27-.15.6-.22,1-.22s.74.07,1,.21c.27.14.48.32.64.56.17.23.28.51.34.83.07.31.1.65.1,1s-.04.67-.12.99c-.07.31-.19.59-.36.83-.17.23-.38.42-.64.57-.26.15-.58.22-.96.22s-.72-.07-.99-.2c-.27-.14-.48-.32-.65-.56s-.29-.51-.36-.82c-.07-.31-.1-.65-.1-1ZM505.97,260.56c0,.19,0,.4.03.62.03.22.08.42.16.61.08.18.19.34.33.47.15.12.34.18.58.18s.45-.06.6-.18.26-.27.34-.46c.09-.19.14-.4.17-.62s.04-.44.04-.64-.01-.39-.04-.61c-.02-.23-.07-.43-.14-.61-.08-.19-.19-.35-.34-.47-.14-.13-.33-.2-.58-.2s-.44.07-.58.2c-.15.12-.26.28-.35.47-.08.18-.13.39-.16.61-.03.22-.04.42-.04.62ZM505,260.58c0-.36.04-.69.1-1,.07-.32.19-.6.35-.85.17-.24.38-.43.65-.57.27-.15.6-.22,1-.22s.74.07,1,.21c.27.14.48.33.64.56.17.23.28.51.34.83.07.31.1.65.1,1s-.04.67-.12.99c-.07.31-.19.59-.36.83-.17.23-.38.42-.64.57-.26.14-.58.21-.96.21s-.72-.07-.99-.2c-.27-.14-.48-.32-.65-.55-.17-.23-.29-.51-.36-.82-.07-.31-.1-.65-.1-1ZM506.82,253.61h1.11l-6.98,9.66h-1.12l6.99-9.66Z"/>
  <g class="st17">
    <g>
      <rect class="st15" x="190.38" y="269" width="320" height="8"/>
      <path class="st5" d="M194.38,269h312c2.21,0,4,1.79,4,4h0c0,2.21-1.79,4-4,4H194.38c-2.21,0-4-1.79-4-4h0c0-2.21,1.79-4,4-4Z"/>
    </g>
  </g>
  <g class="st12">
    <path d="M483.71,81.56c1.74,0,3.02.69,3.86,1.88h.05v-1.49h3.55v13.12c0,2-.62,3.35-1.66,4.32-1.17,1.11-2.96,1.6-5.03,1.6-3.78,0-6.12-1.66-6.5-4.43h3.67c.3.89,1.09,1.58,2.8,1.58,2.09,0,3.1-1.02,3.1-2.96v-1.55h-.08c-.44.54-1,.97-1.63,1.26-.63.29-1.32.42-2.01.4-3.1,0-6.14-2.49-6.14-6.78s2.48-6.95,6.03-6.95ZM463.63,76c4.29,0,7.09,2.11,7.46,5.95h-3.79c-.31-1.84-1.79-2.77-3.72-2.77-2.12,0-3.51.91-3.51,2.32,0,1.6,1.38,2.08,4.26,2.71,3.99.89,7.26,1.85,7.26,6.12,0,4.02-3.18,6.26-7.55,6.26-5.27,0-8.26-2.39-8.4-6.58h3.86c.27,2.38,1.6,3.32,4.37,3.32,2,0,3.78-.7,3.78-2.53,0-1.93-1.85-2.33-4.81-3.02-3.47-.81-6.66-1.75-6.66-5.87,0-3.9,3.16-5.92,7.45-5.92ZM419.96,81.56c4.32,0,7.28,3.25,7.28,7.5s-2.96,7.5-7.28,7.5c-4.32,0-7.28-3.27-7.28-7.5s2.96-7.5,7.28-7.5ZM434.95,81.56c3.61,0,5.84,2.13,6.33,5.21h-3.61c-.1-.62-.41-1.17-.88-1.58s-1.06-.62-1.68-.61c-2.23,0-3.37,1.75-3.37,4.49s1.07,4.49,3.32,4.49c1.49,0,2.55-.8,2.8-2.41h3.55c-.25,3.01-2.56,5.42-6.28,5.42-4.39,0-7.14-3.26-7.14-7.5s2.72-7.5,6.96-7.5ZM445.95,90.78c0,1.66.73,2.57,2.31,2.57,1.74,0,2.8-1.33,2.8-3.21v-8.2h3.69v14.2h-3.56v-1.66h-.08c-.95,1.3-2.04,2.05-3.99,2.05-3.1,0-4.84-2.02-4.84-5.12v-9.47h3.67v8.83ZM403.54,76.36c5.2,0,8.55,4.26,8.55,10.12,0,3.21-1.06,6.04-3.1,7.78-1.44,1.2-3.32,1.89-5.76,1.89h-7.85v-19.79h8.16ZM476.45,96.16h-3.7v-14.2h3.7v14.2ZM500.6,81.56c2.88,0,4.81,2.22,4.81,5.32v9.28h-3.69v-8.72c0-1.52-.87-2.6-2.42-2.6-1.63,0-2.84,1.33-2.84,3.25v8.07h-3.68v-14.2h3.61v1.94h.08c.41-.74,1.02-1.35,1.74-1.76.73-.41,1.55-.61,2.39-.57ZM419.94,84.42c-2.27,0-3.55,1.88-3.55,4.65s1.25,4.62,3.55,4.62c2.3,0,3.55-1.85,3.55-4.62s-1.28-4.65-3.55-4.65ZM399.32,92.69h3.64c3.69,0,5.13-2.3,5.13-6.23s-1.68-6.67-5.03-6.67h-3.74v12.9ZM484.42,84.58c-1.88,0-3.13,1.5-3.13,3.88s1.25,3.81,3.15,3.81c2.33,0,3.29-1.73,3.29-3.83s-1.09-3.85-3.31-3.85ZM506.62,81.61c.29-.06.58-.03.85.08.27.11.5.3.66.55.16.25.25.54.25.83,0,.2-.04.39-.11.57-.07.18-.18.35-.32.49-.14.14-.3.25-.48.32-.18.08-.37.11-.56.11-.29,0-.58-.09-.82-.25-.24-.16-.43-.4-.54-.67-.11-.27-.14-.57-.08-.86.06-.29.2-.56.4-.77.21-.21.47-.35.75-.41ZM506.91,81.82c-.25,0-.49.07-.69.21-.2.14-.36.34-.46.57-.09.23-.12.49-.07.73.05.25.17.47.34.65.17.18.4.3.64.35.24.05.49.02.72-.07s.42-.26.56-.47c.14-.21.21-.45.21-.7,0-.33-.13-.66-.36-.89-.23-.24-.55-.37-.87-.37ZM506.88,82.31c.16-.02.33.02.46.11.05.04.1.1.12.16.03.06.04.13.04.2,0,.09-.02.19-.08.26-.05.08-.13.13-.22.16l.33.62h-.32l-.3-.57h-.25v.57h-.28v-1.52h.48ZM506.81,82.56h-.13s0,.48,0,.48h.28s.07,0,.1,0c.03-.01.06-.03.09-.05.03-.02.05-.05.06-.08.01-.03.02-.06.02-.1,0-.04,0-.08-.03-.12-.02-.04-.05-.07-.09-.08-.1-.03-.2-.04-.3-.03ZM476.45,79.98h-3.7v-3.53h3.7v3.53Z"/>
  </g>
  <rect class="st7" x="189.88" y="324.5" width="17" height="17" rx="1.5" ry="1.5"/>
  <path class="st6" d="M196.38,335.59l-3.29-3.29-1.41,1.41,4.71,4.71,8.71-8.71-1.41-1.41-7.29,7.29Z"/>
  <path class="st10" d="M224.92,331.51c-.14-.66-.45-1.15-.92-1.48-.47-.33-1.03-.49-1.68-.49-.56,0-1.03.1-1.43.31-.39.21-.71.49-.97.85-.25.35-.44.74-.56,1.2-.12.45-.18.92-.18,1.4,0,.53.06,1.03.18,1.51.12.47.31.88.56,1.23.26.35.59.62.99.83.4.21.88.31,1.43.31.41,0,.77-.07,1.08-.2.32-.14.59-.32.82-.56.23-.24.42-.53.55-.86.13-.33.21-.68.23-1.07h1.24c-.12,1.17-.52,2.08-1.21,2.73s-1.62.98-2.81.98c-.72,0-1.35-.12-1.88-.36-.54-.25-.98-.59-1.34-1.03-.35-.43-.62-.94-.81-1.53-.17-.59-.26-1.22-.26-1.9s.1-1.31.29-1.9c.19-.6.47-1.12.83-1.56.37-.44.83-.79,1.38-1.04.56-.26,1.19-.39,1.9-.39.49,0,.94.07,1.38.19.43.13.82.32,1.16.57.34.25.62.57.84.95.23.37.37.81.44,1.3h-1.24ZM227.59,328.72h1.1v3.55h.03c.09-.21.21-.38.36-.52.16-.15.33-.26.52-.35.2-.1.4-.17.61-.21.22-.04.43-.07.62-.07.44,0,.81.06,1.1.18s.53.29.71.51c.18.22.31.48.38.78.08.29.12.62.12.99v4.42h-1.1v-4.55c0-.42-.12-.75-.36-.99-.24-.24-.58-.36-1-.36-.34,0-.63.05-.88.16-.24.1-.45.25-.61.44-.17.19-.29.42-.38.68-.08.25-.12.53-.12.83v3.8h-1.1v-9.28ZM239.48,334c-.02-.26-.08-.51-.18-.74-.1-.23-.23-.43-.4-.6-.16-.17-.36-.31-.6-.4-.23-.1-.48-.16-.75-.16s-.55.05-.78.16c-.22.1-.42.23-.58.4-.16.17-.29.38-.39.61-.1.23-.15.47-.17.73h3.86ZM240.55,335.87c-.15.75-.47,1.32-.97,1.7-.5.38-1.14.57-1.9.57-.54,0-1-.09-1.4-.26-.39-.17-.72-.42-.99-.73-.27-.31-.47-.68-.61-1.12-.13-.43-.2-.91-.22-1.42,0-.51.08-.98.23-1.4.16-.43.37-.79.65-1.11.29-.31.62-.55,1-.73.39-.17.82-.26,1.27-.26.6,0,1.09.13,1.48.38.4.24.71.55.95.94.24.38.41.8.49,1.25.1.45.14.88.12,1.29h-5.03c0,.29.03.58.1.85.08.26.2.49.38.7.17.2.4.36.66.48.27.12.59.18.95.18.47,0,.85-.11,1.14-.33.3-.22.5-.55.6-.99h1.09ZM246.36,333.44c-.09-.43-.27-.75-.55-.99-.28-.23-.65-.35-1.12-.35-.4,0-.73.07-1,.22-.27.15-.49.34-.65.58-.16.24-.27.52-.34.85-.07.31-.1.64-.1.98,0,.31.04.61.1.91.08.29.19.56.35.79.16.23.36.41.61.55.25.14.55.21.9.21.55,0,.97-.14,1.27-.43.31-.29.5-.69.57-1.21h1.13c-.12.83-.43,1.47-.94,1.92-.49.45-1.17.68-2.03.68-.51,0-.97-.08-1.36-.25-.39-.17-.72-.4-.99-.7-.26-.3-.46-.66-.6-1.08-.13-.42-.2-.89-.2-1.39s.07-.97.2-1.4c.13-.44.32-.82.58-1.14.27-.33.6-.58,1-.77.4-.19.86-.29,1.39-.29.38,0,.74.05,1.07.14.34.09.63.23.88.42.26.19.47.43.64.73.16.29.27.63.31,1.03h-1.14ZM248.85,328.72h1.11v5.5l3.07-2.94h1.48l-2.66,2.44,2.86,4.28h-1.4l-2.3-3.51-1.04.96v2.55h-1.11v-9.28ZM255.56,328.72h1.1v3.47h.03c.18-.37.47-.64.86-.81.39-.17.82-.26,1.29-.26.52,0,.97.1,1.35.29.39.19.71.45.96.78.26.32.45.69.58,1.12.13.42.2.88.2,1.35s-.07.93-.2,1.35c-.12.43-.31.8-.57,1.12-.25.31-.57.56-.96.74-.38.18-.83.27-1.34.27-.16,0-.35-.02-.56-.05-.2-.04-.4-.09-.6-.17-.2-.08-.39-.18-.57-.31-.17-.14-.32-.31-.44-.51h-.03v.9h-1.1v-9.28ZM260.76,334.58c0-.31-.04-.61-.13-.91-.08-.3-.2-.57-.38-.81-.17-.23-.38-.42-.65-.56-.26-.14-.57-.21-.92-.21-.37,0-.69.07-.95.22s-.47.34-.64.58c-.16.23-.29.5-.36.81-.07.3-.1.61-.1.92,0,.33.04.65.12.96.08.3.2.57.36.81.17.23.39.42.66.57.27.14.59.21.98.21s.7-.07.95-.22c.26-.15.47-.34.62-.58.16-.24.27-.52.34-.83.07-.31.1-.63.1-.96ZM264.03,334.65c0,.41.05.77.16,1.09.11.31.26.58.45.79.19.21.41.37.66.48.26.11.53.17.82.17s.55-.06.81-.17c.26-.11.49-.27.68-.48.19-.22.34-.48.44-.79.11-.32.17-.68.17-1.09s-.06-.77-.17-1.08c-.1-.32-.25-.59-.44-.81-.19-.22-.42-.38-.68-.49-.25-.11-.52-.17-.81-.17s-.56.06-.82.17c-.25.11-.47.28-.66.49-.19.22-.34.49-.45.81-.1.31-.16.67-.16,1.08ZM262.86,334.65c0-.49.07-.95.21-1.38.14-.43.35-.81.62-1.12.28-.32.62-.57,1.03-.75.41-.18.88-.27,1.4-.27s1.01.09,1.4.27c.41.18.75.43,1.03.75.28.31.49.68.62,1.12.14.42.21.88.21,1.38s-.07.95-.21,1.38c-.14.43-.35.8-.62,1.12-.28.31-.62.56-1.03.74-.4.17-.87.26-1.4.26s-1-.09-1.4-.26c-.41-.18-.75-.43-1.03-.74-.28-.32-.49-.69-.62-1.12-.14-.42-.21-.88-.21-1.38ZM272.5,334.46l-2.34-3.18h1.42l1.61,2.35,1.68-2.35h1.33l-2.31,3.09,2.6,3.63h-1.42l-1.87-2.78-1.87,2.78h-1.34l2.52-3.54ZM281.1,328.72h1.1v9.28h-1.1v-9.28ZM289.88,337.97c-.19.11-.46.17-.79.17-.29,0-.52-.08-.69-.23-.17-.17-.25-.43-.25-.79-.3.36-.66.63-1.07.79-.4.16-.83.23-1.3.23-.3,0-.59-.04-.87-.1-.27-.07-.5-.18-.7-.33s-.36-.34-.48-.57c-.11-.24-.17-.53-.17-.87,0-.38.07-.69.2-.94.13-.24.3-.44.51-.58.22-.16.46-.27.73-.35.28-.08.56-.14.85-.19.3-.06.59-.1.86-.13.28-.04.52-.08.73-.13.21-.06.37-.14.49-.25.12-.11.18-.27.18-.48,0-.24-.05-.44-.14-.58-.09-.15-.2-.26-.35-.34-.14-.08-.3-.13-.48-.16-.17-.03-.35-.04-.52-.04-.47,0-.86.09-1.17.27-.31.17-.48.51-.51,1h-1.11c.02-.42.1-.77.26-1.05s.36-.52.62-.69c.26-.18.55-.31.88-.39.34-.08.7-.12,1.08-.12.3,0,.6.02.9.07.3.04.58.13.82.27.24.13.44.32.58.56.15.24.22.56.22.95v3.46c0,.26.01.45.04.57.04.12.14.18.31.18.1,0,.21-.02.34-.07v.86ZM288.08,334.53c-.14.1-.32.18-.55.23-.23.04-.46.08-.72.12-.24.03-.49.06-.74.1-.25.04-.48.1-.68.18-.2.09-.36.21-.49.38-.12.16-.18.37-.18.65,0,.18.04.34.1.47.08.12.17.22.29.3.12.08.26.13.42.17s.32.05.49.05c.36,0,.68-.05.94-.14.26-.1.47-.23.64-.38.17-.16.29-.32.36-.49.08-.18.12-.35.12-.51v-1.13ZM290.94,328.72h1.11v3.47h.03c.18-.37.47-.64.86-.81.39-.17.82-.26,1.29-.26.52,0,.97.1,1.35.29.39.19.71.45.96.78.26.32.46.69.59,1.12.13.42.19.88.19,1.35s-.07.93-.19,1.35c-.12.43-.31.8-.57,1.12-.25.31-.57.56-.96.74-.38.18-.83.27-1.34.27-.16,0-.35-.02-.56-.05-.2-.04-.4-.09-.6-.17-.2-.08-.39-.18-.57-.31-.17-.14-.32-.31-.44-.51h-.03v.9h-1.11v-9.28ZM296.14,334.58c0-.31-.04-.61-.13-.91-.08-.3-.2-.57-.38-.81-.16-.23-.38-.42-.65-.56-.26-.14-.57-.21-.92-.21s-.69.07-.95.22c-.26.15-.47.34-.64.58-.16.23-.29.5-.36.81-.07.3-.1.61-.1.92,0,.33.04.65.12.96.08.3.2.57.36.81.17.23.4.42.66.57.27.14.59.21.98.21s.7-.07.95-.22c.26-.15.47-.34.62-.58s.27-.52.34-.83c.07-.31.1-.63.1-.96ZM303.28,334c-.02-.26-.08-.51-.18-.74-.1-.23-.23-.43-.4-.6-.16-.17-.36-.31-.6-.4-.23-.1-.48-.16-.75-.16s-.55.05-.78.16c-.23.1-.42.23-.58.4-.16.17-.29.38-.39.61-.1.23-.15.47-.17.73h3.86ZM304.34,335.87c-.15.75-.47,1.32-.97,1.7-.5.38-1.14.57-1.9.57-.54,0-1.01-.09-1.4-.26-.39-.17-.72-.42-.99-.73-.27-.31-.47-.68-.61-1.12-.13-.43-.2-.91-.22-1.42,0-.51.08-.98.23-1.4.16-.43.37-.79.65-1.11.29-.31.62-.55,1-.73.39-.17.81-.26,1.27-.26.6,0,1.09.13,1.48.38.4.24.71.55.95.94.24.38.41.8.49,1.25.1.45.14.88.12,1.29h-5.03c0,.29.03.58.1.85.08.26.2.49.38.7.17.2.39.36.66.48.27.12.58.18.95.18.47,0,.85-.11,1.14-.33.3-.22.5-.55.6-.99h1.09ZM305.66,328.72h1.11v9.28h-1.11v-9.28Z"/>
  <path class="st13" d="M222.26,354.39h-2.86v-.96h6.85v.96h-2.86v7.61h-1.14v-7.61ZM227.04,353.43h1.02v3.28h.02c.08-.19.19-.35.34-.48.14-.14.3-.24.48-.32.18-.09.37-.15.56-.19.2-.04.39-.06.58-.06.41,0,.75.06,1.02.17s.49.27.66.47c.17.2.28.44.35.72.07.27.11.58.11.91v4.08h-1.02v-4.2c0-.38-.11-.69-.34-.91s-.53-.34-.92-.34c-.31,0-.58.05-.82.14-.22.1-.41.23-.56.41-.15.18-.27.38-.35.62-.07.23-.11.49-.11.77v3.5h-1.02v-8.57ZM234.79,354.68h-1.02v-1.25h1.02v1.25ZM233.76,355.8h1.02v6.2h-1.02v-6.2ZM236.99,360.04c0,.22.06.42.16.58.1.15.22.28.37.37.16.09.34.15.53.19.2.04.4.06.61.06.16,0,.33-.01.5-.04.18-.02.34-.07.48-.13.15-.06.28-.16.37-.28.1-.13.14-.29.14-.48,0-.26-.1-.46-.3-.6s-.45-.24-.76-.32c-.3-.09-.62-.16-.97-.23-.35-.07-.68-.17-.98-.29-.3-.13-.54-.3-.74-.53-.2-.22-.3-.54-.3-.94,0-.31.07-.58.2-.8.14-.22.32-.4.54-.54.22-.14.47-.25.74-.31.28-.07.56-.11.83-.11.35,0,.68.03.97.1.3.06.56.16.78.31.23.14.42.34.55.6.14.25.22.56.24.94h-1.02c-.02-.2-.07-.36-.16-.49-.09-.14-.2-.24-.34-.32s-.29-.14-.46-.17c-.16-.04-.32-.06-.49-.06-.15,0-.31.01-.47.04-.15.02-.29.07-.42.13-.13.06-.23.14-.31.24-.08.1-.12.22-.12.38,0,.18.06.32.18.44.13.11.29.21.48.29.19.07.41.14.65.19.24.05.48.1.72.16.26.06.5.12.74.2.25.08.46.19.65.32.19.13.34.29.46.49.12.2.18.45.18.74,0,.38-.08.69-.24.94-.15.25-.36.45-.61.6-.25.15-.53.26-.85.31-.31.06-.62.1-.94.1-.34,0-.67-.04-.98-.11-.31-.07-.59-.19-.83-.35-.24-.17-.43-.38-.58-.65-.14-.27-.22-.6-.24-.98h1.02ZM246.79,354.68h-1.02v-1.25h1.02v1.25ZM245.76,355.8h1.02v6.2h-1.02v-6.2ZM248.99,360.04c0,.22.06.42.16.58.1.15.22.28.37.37.16.09.34.15.53.19.2.04.4.06.61.06.16,0,.33-.01.5-.04.18-.02.34-.07.48-.13.15-.06.28-.16.37-.28.1-.13.14-.29.14-.48,0-.26-.1-.46-.3-.6s-.45-.24-.76-.32c-.3-.09-.62-.16-.97-.23-.35-.07-.68-.17-.98-.29-.3-.13-.54-.3-.74-.53-.2-.22-.3-.54-.3-.94,0-.31.07-.58.2-.8.14-.22.32-.4.54-.54.22-.14.47-.25.74-.31.28-.07.56-.11.83-.11.35,0,.68.03.97.1.3.06.56.16.78.31.23.14.42.34.55.6.14.25.22.56.24.94h-1.02c-.02-.2-.07-.36-.16-.49-.09-.14-.2-.24-.34-.32s-.29-.14-.46-.17c-.16-.04-.32-.06-.49-.06-.15,0-.31.01-.47.04-.15.02-.29.07-.42.13-.13.06-.23.14-.31.24-.08.1-.12.22-.12.38,0,.18.06.32.18.44.13.11.29.21.48.29.19.07.41.14.65.19.24.05.48.1.72.16.26.06.5.12.74.2.25.08.46.19.65.32.19.13.34.29.46.49.12.2.18.45.18.74,0,.38-.08.69-.24.94-.15.25-.36.45-.61.6-.25.15-.53.26-.85.31-.31.06-.62.1-.94.1-.34,0-.67-.04-.98-.11-.31-.07-.59-.19-.83-.35-.24-.17-.43-.38-.58-.65-.14-.27-.22-.6-.24-.98h1.02ZM258.45,358.95c0,.29.04.57.11.85.08.27.2.52.35.73.16.22.36.39.6.52.25.13.54.19.86.19s.64-.07.88-.2c.24-.14.44-.31.59-.53.15-.22.26-.48.32-.76.07-.28.11-.56.11-.85,0-.3-.04-.6-.11-.88-.07-.29-.19-.54-.35-.76-.15-.22-.35-.39-.6-.52-.25-.14-.55-.2-.9-.2s-.64.07-.88.2c-.24.14-.43.32-.58.54-.14.22-.25.48-.31.77s-.1.58-.1.89ZM263.25,362h-1.02v-.84h-.02c-.17.34-.43.59-.79.74-.36.15-.76.23-1.19.23-.48,0-.9-.09-1.26-.26-.35-.18-.65-.41-.89-.71-.23-.3-.41-.64-.53-1.03s-.18-.81-.18-1.25.06-.86.17-1.25c.12-.39.3-.73.53-1.02.24-.3.54-.53.89-.7.36-.18.78-.26,1.25-.26.16,0,.33.02.52.05.18.03.37.09.55.17.18.07.36.17.52.3.17.12.31.27.42.46h.02v-3.19h1.02v8.57ZM269.13,358.3c-.02-.24-.07-.47-.17-.68-.09-.22-.21-.4-.37-.55-.15-.16-.34-.28-.55-.37-.21-.1-.44-.14-.7-.14s-.5.05-.72.14c-.21.09-.39.21-.54.37-.15.16-.27.35-.36.56-.09.21-.14.43-.16.67h3.56ZM270.11,360.03c-.14.7-.44,1.22-.9,1.57s-1.05.53-1.75.53c-.5,0-.93-.08-1.3-.24-.36-.16-.66-.38-.91-.67-.25-.29-.44-.63-.56-1.03-.12-.4-.19-.84-.2-1.31,0-.47.07-.9.22-1.3.14-.39.34-.73.6-1.02.26-.29.57-.51.92-.67.36-.16.75-.24,1.18-.24.55,0,1.01.12,1.37.35.37.22.66.51.88.86.22.35.38.74.46,1.15.09.42.12.81.11,1.19h-4.64c0,.27.02.53.1.78.07.24.19.46.35.65.16.18.36.33.61.44.25.11.54.17.88.17.43,0,.78-.1,1.06-.3.28-.2.46-.5.55-.91h1.01ZM271.89,360.04c0,.22.06.42.16.58.1.15.22.28.37.37.16.09.34.15.53.19.2.04.4.06.61.06.16,0,.33-.01.5-.04.18-.02.34-.07.48-.13.15-.06.28-.16.37-.28.1-.13.14-.29.14-.48,0-.26-.1-.46-.3-.6-.2-.14-.45-.24-.76-.32-.3-.09-.62-.16-.97-.23-.35-.07-.68-.17-.98-.29-.3-.13-.54-.3-.74-.53-.2-.22-.3-.54-.3-.94,0-.31.07-.58.2-.8.14-.22.32-.4.54-.54.22-.14.47-.25.74-.31.28-.07.56-.11.83-.11.35,0,.68.03.97.1.3.06.56.16.78.31.23.14.42.34.55.6.14.25.22.56.24.94h-1.02c-.02-.2-.07-.36-.16-.49-.09-.14-.2-.24-.34-.32-.14-.08-.29-.14-.46-.17-.16-.04-.32-.06-.49-.06-.15,0-.31.01-.47.04-.15.02-.29.07-.42.13-.13.06-.23.14-.31.24-.08.1-.12.22-.12.38,0,.18.06.32.18.44.13.11.29.21.48.29.19.07.41.14.65.19.24.05.48.1.72.16.26.06.5.12.74.2.25.08.46.19.65.32.19.13.34.29.46.49.12.2.18.45.18.74,0,.38-.08.69-.24.94-.15.25-.36.45-.61.6-.25.15-.53.26-.85.31-.31.06-.62.1-.94.1-.34,0-.67-.04-.98-.11-.31-.07-.59-.19-.83-.35-.24-.17-.43-.38-.58-.65-.14-.27-.22-.6-.24-.98h1.02ZM281.47,357.79c-.08-.39-.25-.7-.5-.91-.26-.22-.6-.32-1.03-.32-.37,0-.68.07-.92.2-.25.14-.45.32-.6.54-.14.22-.25.48-.31.78-.06.29-.1.59-.1.9,0,.29.03.57.1.84.07.27.18.52.32.73.14.21.33.38.56.5s.51.19.83.19c.5,0,.9-.13,1.18-.4.29-.26.46-.64.53-1.12h1.04c-.11.77-.4,1.36-.86,1.78-.46.42-1.08.62-1.87.62-.47,0-.89-.08-1.26-.23-.36-.15-.66-.37-.91-.65-.24-.28-.42-.61-.55-1-.12-.39-.18-.82-.18-1.28s.06-.9.18-1.3c.12-.41.3-.76.54-1.06.25-.3.56-.54.92-.71.37-.18.8-.26,1.28-.26.35,0,.68.04.98.13.31.08.58.21.82.38.24.18.44.4.59.67.15.26.25.58.29.95h-1.06ZM283.67,355.8h.96v1.31h.02c.25-.5.55-.88.91-1.12.36-.24.82-.35,1.37-.34v1.08c-.41,0-.76.06-1.04.17-.29.11-.52.28-.7.49s-.3.48-.38.79c-.08.3-.12.66-.12,1.06v2.76h-1.02v-6.2ZM288.79,354.68h-1.02v-1.25h1.02v1.25ZM287.76,355.8h1.02v6.2h-1.02v-6.2ZM290.4,355.8h1.02v.84h.02c.17-.34.43-.59.79-.74.36-.16.76-.24,1.19-.24.48,0,.9.09,1.25.26.36.18.66.42.89.72.24.3.42.64.54,1.03s.18.81.18,1.25-.06.86-.18,1.25c-.11.39-.29.74-.53,1.03-.23.29-.53.52-.89.68-.35.17-.76.25-1.24.25-.15,0-.32-.02-.52-.05-.18-.03-.37-.08-.55-.16-.18-.07-.36-.17-.53-.29-.16-.13-.3-.28-.41-.47h-.02v3.19h-1.02v-8.57ZM295.2,358.84c0-.29-.04-.57-.12-.84-.07-.28-.19-.53-.35-.74-.15-.22-.35-.39-.6-.52-.24-.13-.52-.19-.85-.19-.34,0-.64.07-.88.2-.24.14-.44.32-.59.54-.15.22-.26.46-.34.74-.06.28-.1.56-.1.85,0,.3.04.6.11.89.07.28.18.53.34.74.16.22.36.39.61.53.25.13.55.19.9.19s.64-.07.88-.2c.24-.14.43-.32.58-.54.14-.22.25-.48.31-.77s.1-.58.1-.89ZM298.89,355.8h1.24v.9h-1.24v3.85c0,.12,0,.22.02.29.02.07.06.13.12.17s.13.07.23.08c.1,0,.24.01.4.01h.47v.9h-.78c-.26,0-.49-.02-.68-.05-.18-.04-.34-.11-.46-.2-.11-.1-.2-.23-.25-.41s-.08-.41-.08-.7v-3.95h-1.06v-.9h1.06v-1.86h1.02v1.86ZM302.34,354.68h-1.02v-1.25h1.02v1.25ZM301.32,355.8h1.02v6.2h-1.02v-6.2ZM304.67,358.9c0,.38.05.71.14,1.01.1.29.24.53.42.73.18.19.38.34.61.44.24.1.49.16.76.16s.51-.05.74-.16c.24-.1.45-.25.62-.44.18-.2.31-.44.41-.73.1-.3.16-.63.16-1.01s-.05-.71-.16-1c-.1-.3-.23-.54-.41-.74-.18-.2-.38-.35-.62-.46-.23-.1-.48-.16-.74-.16s-.52.05-.76.16c-.23.1-.44.26-.61.46s-.32.45-.42.74c-.1.29-.14.62-.14,1ZM303.59,358.9c0-.46.06-.88.19-1.27.13-.4.32-.74.58-1.03.26-.3.57-.53.95-.7.38-.17.81-.25,1.3-.25s.93.08,1.3.25c.38.17.69.4.95.7.26.29.45.63.58,1.03.13.39.19.82.19,1.27s-.06.88-.19,1.27c-.13.39-.32.74-.58,1.03-.26.29-.57.52-.95.68-.37.16-.8.24-1.3.24s-.92-.08-1.3-.24c-.38-.17-.69-.4-.95-.68-.26-.3-.45-.64-.58-1.03s-.19-.82-.19-1.27ZM310.81,355.8h.96v.98h.02c.42-.75,1.1-1.13,2.02-1.13.41,0,.75.06,1.02.17s.49.27.66.47c.17.2.28.44.35.72.07.27.11.58.11.91v4.08h-1.02v-4.2c0-.38-.11-.69-.34-.91s-.53-.34-.92-.34c-.31,0-.58.05-.82.14-.22.1-.41.23-.56.41-.15.18-.27.38-.35.62-.07.23-.11.49-.11.77v3.5h-1.02v-6.2ZM322.24,355.8h1.24v.9h-1.24v3.85c0,.12,0,.22.02.29.02.07.06.13.12.17s.13.07.23.08c.1,0,.24.01.4.01h.47v.9h-.78c-.26,0-.49-.02-.68-.05-.18-.04-.34-.11-.46-.2-.11-.1-.2-.23-.25-.41s-.08-.41-.08-.7v-3.95h-1.06v-.9h1.06v-1.86h1.02v1.86ZM328.91,358.3c-.02-.24-.07-.47-.17-.68-.09-.22-.21-.4-.37-.55-.15-.16-.34-.28-.55-.37-.21-.1-.44-.14-.7-.14s-.5.05-.72.14c-.21.09-.39.21-.54.37-.15.16-.27.35-.36.56-.09.21-.14.43-.16.67h3.56ZM329.9,360.03c-.14.7-.44,1.22-.9,1.57s-1.05.53-1.75.53c-.5,0-.93-.08-1.3-.24-.36-.16-.66-.38-.91-.67-.25-.29-.44-.63-.56-1.03-.12-.4-.19-.84-.2-1.31,0-.47.07-.9.22-1.3.14-.39.34-.73.6-1.02.26-.29.57-.51.92-.67.36-.16.75-.24,1.18-.24.55,0,1.01.12,1.37.35.37.22.66.51.88.86.22.35.38.74.46,1.15.09.42.12.81.11,1.19h-4.64c0,.27.02.53.1.78.07.24.19.46.35.65.16.18.36.33.61.44.25.11.54.17.88.17.43,0,.78-.1,1.06-.3.28-.2.46-.5.55-.91h1.01ZM332.72,358.74l-2.16-2.94h1.31l1.49,2.17,1.55-2.17h1.22l-2.14,2.86,2.4,3.35h-1.31l-1.73-2.57-1.73,2.57h-1.24l2.33-3.26ZM338.68,355.8h1.24v.9h-1.24v3.85c0,.12,0,.22.02.29.02.07.06.13.12.17s.13.07.23.08c.1,0,.24.01.4.01h.47v.9h-.78c-.26,0-.49-.02-.68-.05-.18-.04-.34-.11-.46-.2-.11-.1-.2-.23-.25-.41s-.08-.41-.08-.7v-3.95h-1.06v-.9h1.06v-1.86h1.02v1.86Z"/>
  <rect class="st10" x="396.38" y="326" width="114" height="23.84" rx="2" ry="2"/>
  <path class="st9" d="M491.32,334.56h1.1v.91h.03c.18-.37.47-.64.86-.81.39-.17.82-.26,1.29-.26.52,0,.97.1,1.35.29.39.19.71.45.96.78.26.32.45.69.58,1.12.13.43.2.88.2,1.35s-.07.93-.2,1.35c-.12.42-.31.8-.57,1.12-.25.31-.57.56-.96.74-.38.18-.83.27-1.34.27-.16,0-.35-.02-.56-.05-.2-.03-.4-.09-.6-.17-.2-.08-.39-.18-.57-.31-.17-.14-.32-.31-.44-.51h-.03v3.46h-1.1v-9.28ZM496.52,337.86c0-.31-.04-.62-.13-.91-.08-.3-.2-.57-.38-.81-.17-.23-.38-.42-.65-.56-.26-.14-.57-.21-.92-.21-.37,0-.69.07-.95.22-.26.15-.47.34-.64.58-.17.23-.29.5-.36.81-.07.3-.1.61-.1.92,0,.33.04.65.12.96.08.3.2.57.36.81.17.23.39.42.66.57.27.14.59.21.98.21s.7-.07.95-.22c.26-.15.47-.34.62-.58.16-.24.27-.52.34-.83.07-.31.1-.63.1-.96Z"/>
  <path class="st9" d="M489.57,333.35h-1.11v-1.35h1.11v1.35ZM488.47,334.56h1.11v6.72h-1.11v-6.72Z"/>
  <path class="st9" d="M485.84,334.56h1.34v.98h-1.34v4.17c0,.13,0,.23.03.31.03.08.07.14.13.18.06.04.14.07.25.09.11,0,.26.01.43.01h.51v.98h-.85c-.29,0-.53-.02-.74-.05-.2-.04-.36-.12-.49-.22-.12-.1-.21-.25-.27-.44-.06-.19-.09-.44-.09-.75v-4.28h-1.14v-.98h1.14v-2.02h1.11v2.02Z"/>
  <path class="st9" d="M481.49,332h1.11v9.28h-1.11v-9.28Z"/>
  <path class="st9" d="M474.76,337.93c0,.41.05.77.16,1.09.11.31.26.58.45.79.19.21.41.37.66.48.26.11.53.17.82.17s.55-.06.81-.17c.26-.11.49-.27.68-.48.19-.22.34-.48.44-.79.11-.32.17-.68.17-1.09s-.06-.77-.17-1.08c-.1-.32-.25-.59-.44-.81-.19-.22-.42-.38-.68-.49-.25-.11-.52-.17-.81-.17s-.56.06-.82.17c-.25.11-.47.28-.66.49-.19.22-.34.49-.45.81-.1.31-.16.67-.16,1.08ZM473.59,337.93c0-.49.07-.95.21-1.38.14-.43.35-.81.62-1.12.28-.32.62-.57,1.03-.75.41-.18.88-.27,1.4-.27s1.01.09,1.4.27c.41.18.75.43,1.03.75.28.31.49.68.62,1.12.14.43.21.88.21,1.38s-.07.95-.21,1.38c-.14.42-.35.8-.62,1.12-.28.31-.62.56-1.03.74-.4.17-.87.26-1.4.26s-1-.09-1.4-.26c-.41-.18-.75-.43-1.03-.74-.28-.32-.49-.69-.62-1.12-.14-.42-.21-.88-.21-1.38Z"/>
  <path class="st9" d="M467.3,337.93c0,.41.05.77.16,1.09.11.31.26.58.45.79.19.21.41.37.66.48.26.11.53.17.82.17s.55-.06.81-.17c.26-.11.49-.27.68-.48.19-.22.34-.48.44-.79.11-.32.17-.68.17-1.09s-.06-.77-.17-1.08c-.1-.32-.25-.59-.44-.81-.19-.22-.42-.38-.68-.49-.25-.11-.52-.17-.81-.17s-.56.06-.82.17c-.25.11-.47.28-.66.49-.19.22-.34.49-.45.81-.1.31-.16.67-.16,1.08ZM466.13,337.93c0-.49.07-.95.21-1.38.14-.43.35-.81.62-1.12.28-.32.62-.57,1.03-.75.41-.18.88-.27,1.4-.27s1.01.09,1.4.27c.41.18.75.43,1.03.75.28.31.49.68.62,1.12.14.43.21.88.21,1.38s-.07.95-.21,1.38c-.14.42-.35.8-.62,1.12-.28.31-.62.56-1.03.74-.4.17-.87.26-1.4.26s-1-.09-1.4-.26c-.41-.18-.75-.43-1.03-.74-.28-.32-.49-.69-.62-1.12-.14-.42-.21-.88-.21-1.38Z"/>
  <path class="st9" d="M462.76,333.04h-3.09v-1.04h7.42v1.04h-3.09v8.24h-1.24v-8.24Z"/>
  <path class="st9" d="M455.83,341.26c-.19.11-.45.17-.79.17-.29,0-.51-.08-.69-.23-.16-.17-.25-.43-.25-.79-.3.36-.66.63-1.07.79-.4.16-.83.23-1.3.23-.3,0-.59-.03-.87-.1-.27-.07-.5-.18-.7-.33-.2-.15-.36-.34-.48-.57-.11-.24-.17-.53-.17-.87,0-.38.07-.69.2-.94.13-.24.3-.44.51-.58.22-.16.46-.27.73-.35.28-.08.56-.14.85-.2.3-.06.59-.1.86-.13.28-.03.52-.08.73-.13.21-.06.37-.14.49-.25.12-.11.18-.27.18-.48,0-.24-.05-.44-.14-.58-.09-.15-.2-.26-.35-.34-.14-.08-.3-.13-.48-.16-.17-.03-.35-.04-.52-.04-.47,0-.86.09-1.17.27-.31.17-.48.51-.51,1h-1.1c.02-.42.1-.77.26-1.05.16-.29.36-.52.62-.69.26-.18.56-.31.88-.39.34-.08.7-.12,1.08-.12.3,0,.6.02.9.07.3.04.58.13.82.27.24.13.44.32.58.56.15.24.22.56.22.95v3.46c0,.26.01.45.04.57.04.12.14.18.31.18.1,0,.21-.02.34-.07v.86ZM454.03,337.81c-.14.1-.32.18-.55.23-.23.04-.46.08-.71.12-.24.03-.49.06-.74.1-.25.04-.48.1-.68.18-.2.09-.36.21-.49.38-.12.16-.18.37-.18.65,0,.18.04.34.1.47.08.12.17.22.29.3.12.08.26.13.42.17.16.04.32.05.49.05.36,0,.68-.05.94-.14.26-.1.47-.23.64-.38.17-.16.29-.32.36-.49.08-.18.12-.35.12-.51v-1.13Z"/>
  <path class="st9" d="M440.43,339.16c0,.24.07.45.17.62.1.17.24.3.4.4.17.1.36.17.57.21.22.04.44.07.66.07.17,0,.36-.01.55-.04.19-.03.36-.07.52-.14.17-.07.3-.17.4-.3.1-.14.16-.31.16-.52,0-.29-.11-.5-.33-.65-.22-.15-.49-.26-.82-.35-.32-.1-.67-.18-1.05-.25-.38-.08-.74-.18-1.07-.31-.32-.14-.59-.33-.81-.57-.22-.24-.33-.58-.33-1.01,0-.34.07-.63.22-.87.16-.24.35-.44.58-.59.24-.16.51-.27.81-.34.3-.08.6-.12.9-.12.38,0,.73.04,1.05.1.32.06.6.17.85.34.25.16.45.37.6.65.15.27.23.61.26,1.01h-1.11c-.02-.22-.07-.39-.17-.53-.1-.15-.22-.26-.36-.35-.15-.09-.31-.15-.49-.18-.17-.04-.35-.07-.53-.07-.16,0-.33.01-.51.04-.16.03-.32.07-.46.14-.14.06-.25.15-.34.26-.09.1-.13.24-.13.42,0,.19.07.35.19.48.14.12.31.23.52.31.21.08.44.15.7.21.26.05.52.11.78.17.28.06.55.13.81.22.27.09.5.2.7.35.21.14.37.32.49.53.13.22.19.48.19.81,0,.41-.09.74-.26,1.01-.16.27-.39.48-.66.65-.27.17-.58.28-.92.34-.34.07-.68.1-1.01.1-.37,0-.73-.04-1.07-.12-.34-.08-.64-.2-.9-.38-.26-.18-.47-.42-.62-.7-.16-.3-.24-.65-.26-1.07h1.11Z"/>
  <path class="st9" d="M438.04,333.35h-1.11v-1.35h1.11v1.35ZM436.94,334.56h1.11v6.72h-1.11v-6.72Z"/>
  <path class="st9" d="M427.43,339.16c0,.24.07.45.17.62.1.17.24.3.4.4.17.1.36.17.57.21.22.04.44.07.66.07.17,0,.36-.01.55-.04.19-.03.36-.07.52-.14.17-.07.3-.17.4-.3.1-.14.16-.31.16-.52,0-.29-.11-.5-.33-.65-.22-.15-.49-.26-.82-.35-.32-.1-.67-.18-1.05-.25-.38-.08-.74-.18-1.07-.31-.32-.14-.59-.33-.81-.57-.22-.24-.33-.58-.33-1.01,0-.34.07-.63.22-.87.16-.24.35-.44.58-.59.24-.16.51-.27.81-.34.3-.08.6-.12.9-.12.38,0,.73.04,1.05.1.32.06.6.17.85.34.25.16.45.37.6.65.15.27.23.61.26,1.01h-1.11c-.02-.22-.07-.39-.17-.53-.1-.15-.22-.26-.36-.35-.15-.09-.31-.15-.49-.18-.17-.04-.35-.07-.53-.07-.16,0-.33.01-.51.04-.16.03-.32.07-.46.14-.14.06-.25.15-.34.26-.09.1-.13.24-.13.42,0,.19.07.35.19.48.14.12.31.23.52.31.21.08.44.15.7.21.26.05.52.11.78.17.28.06.55.13.81.22.27.09.5.2.7.35.21.14.37.32.49.53.13.22.19.48.19.81,0,.41-.09.74-.26,1.01-.16.27-.39.48-.66.65-.27.17-.58.28-.92.34-.34.07-.68.1-1.01.1-.37,0-.73-.04-1.07-.12-.34-.08-.64-.2-.9-.38-.26-.18-.47-.42-.62-.7-.16-.3-.24-.65-.26-1.07h1.11Z"/>
  <path class="st9" d="M425.04,333.35h-1.11v-1.35h1.11v1.35ZM423.94,334.56h1.11v6.72h-1.11v-6.72Z"/>
  <path class="st9" d="M416.65,332h1.11v3.55h.03c.09-.21.21-.38.36-.52.16-.15.33-.26.52-.35.2-.1.4-.17.61-.21.22-.04.42-.07.62-.07.44,0,.81.06,1.11.18.29.12.53.29.71.51.18.22.31.48.38.78.08.3.12.62.12.99v4.42h-1.1v-4.55c0-.42-.12-.74-.36-.99-.24-.24-.58-.36-1-.36-.34,0-.63.05-.88.16-.24.1-.45.25-.61.44s-.29.42-.38.68c-.08.25-.12.53-.12.83v3.8h-1.11v-9.28Z"/>
  <path class="st9" d="M411.47,333.04h-3.09v-1.04h7.42v1.04h-3.09v8.24h-1.24v-8.24Z"/>
  <path class="st10" d="M414.38,355.84l-6-6h12l-6,6Z"/>
  <text class="st14" transform="translate(52.12 472)"><tspan x="0" y="0">LEGACY VISUALS AND PATTERNS (NOT SUPPORTED)</tspan></text>
</svg>