<?xml version="1.0" encoding="UTF-8"?>
<svg id="Layer_1" xmlns="http://www.w3.org/2000/svg" xmlns:xlink="http://www.w3.org/1999/xlink" version="1.1" viewBox="0 0 561.38 495.75">
  <!-- Generator: Adobe Illustrator 30.0.0, SVG Export Plug-In . SVG Version: 2.1.1 Build 123)  -->
  <defs>
    <style>
      .st0, .st1 {
        fill: none;
      }

      .st2 {
        mask: url(#mask);
      }

      .st3 {
        fill: #735aff;
      }

      .st4 {
        fill-rule: evenodd;
      }

      .st4, .st5, .st6, .st7 {
        fill: #fff;
      }

      .st8 {
        mask: url(#mask-1);
      }

      .st9 {
        clip-path: url(#clippath-3);
      }

      .st10 {
        clip-path: url(#clippath-4);
      }

      .st11 {
        clip-path: url(#clippath-5);
      }

      .st12 {
        fill: #e9f;
        font-family: HelveticaNeue-Medium, 'Helvetica Neue';
        font-size: 16px;
        font-weight: 500;
        isolation: isolate;
        letter-spacing: .08em;
      }

      .st13 {
        fill: #2b2843;
      }

      .st14 {
        fill: #f5f5f5;
      }

      .st15 {
        fill: #4c00fb;
      }

      .st16, .st17, .st18 {
        fill: #130032;
      }

      .st16, .st6 {
        fill-opacity: .1;
      }

      .st17, .st7 {
        fill-opacity: .9;
      }

      .st18 {
        fill-opacity: .5;
      }

      .st19 {
        fill: #4c00ff;
      }

      .st20 {
        fill: #ff5252;
      }

      .st21 {
        fill: #37039e;
      }

      .st1 {
        stroke: #fff;
      }
    </style>
    <clipPath id="clippath">
      <rect class="st0" x="58.69" y="140.33" width="440" height="56" rx="8" ry="8"/>
    </clipPath>
    <mask id="mask" x="56.69" y="138.33" width="444" height="60" maskUnits="userSpaceOnUse">
      <g id="path-3-outside-1_10_9493">
        <rect class="st5" x="56.69" y="138.33" width="444" height="60"/>
        <path d="M58.69,148.33c0-4.42,3.58-8,8-8h424c4.42,0,8,3.58,8,8v40c0,4.42-3.58,8-8,8H66.69c-4.42,0-8-3.58-8-8v-40Z"/>
      </g>
    </mask>
    <clipPath id="clippath-3">
      <path class="st0" d="M173.69,279.33c0-1.1.9-2,2-2h317c1.1,0,2,.9,2,2s-.9,2-2,2H175.69c-1.1,0-2-.9-2-2Z"/>
    </clipPath>
    <mask id="mask-1" x="171.69" y="277.33" width="325" height="4" maskUnits="userSpaceOnUse">
      <g id="path-59-outside-2_10_9493">
        <rect class="st5" x="171.69" y="277.33" width="325" height="4"/>
        <path d="M173.69,277.33h321v4H173.69v-4Z"/>
      </g>
    </mask>
    <clipPath id="clippath-4">
      <rect class="st0" x="325.69" y="71.33" width="173" height="35"/>
    </clipPath>
    <clipPath id="clippath-5">
      <rect class="st0" x="325.69" y="71.33" width="173" height="35"/>
    </clipPath>
  </defs>
  <path class="st14" d="M.69,16.33C.69,7.49,7.85.33,16.69.33h528c8.84,0,16,7.16,16,16v411c0,8.84-7.16,16-16,16H16.69c-8.84,0-16-7.16-16-16V16.33Z"/>
  <g>
    <path class="st17" d="M58.69,148.33c0-4.42,3.58-8,8-8h424c4.42,0,8,3.58,8,8v40c0,4.42-3.58,8-8,8H66.69c-4.42,0-8-3.58-8-8v-40Z" shape-rendering="crispEdges"/>
    <g class="st2">
      <path class="st6" d="M66.69,140.33v2h424v-4H66.69v2ZM498.69,148.33h-2v40h4v-40h-2ZM490.69,196.33v-2H66.69v4h424v-2ZM58.69,188.33h2v-40h-4v40h2ZM66.69,196.33v-2c-3.31,0-6-2.69-6-6h-4c0,5.52,4.48,10,10,10v-2ZM498.69,188.33h-2c0,3.31-2.69,6-6,6v4c5.52,0,10-4.48,10-10h-2ZM490.69,140.33v2c3.31,0,6,2.69,6,6h4c0-5.52-4.48-10-10-10v2ZM66.69,140.33v-2c-5.52,0-10,4.48-10,10h4c0-3.31,2.69-6,6-6v-2Z"/>
    </g>
    <path class="st7" d="M86.69,160.23c4.47,0,8.1,3.63,8.1,8.1s-3.63,8.1-8.1,8.1-8.1-3.63-8.1-8.1,3.63-8.1,8.1-8.1ZM86.69,158.33c-5.52,0-10,4.48-10,10s4.48,10,10,10,10-4.48,10-10-4.48-10-10-10ZM87.69,167.33h-2v6h2v-6ZM87.69,163.33h-2v2h2v-2Z"/>
    <path class="st5" d="M375.71,168.62v-6.86h.8l.02,1.33h.03c.49-.97,1.36-1.47,2.44-1.47,1.47,0,2.46,1.01,2.46,2.65v4.35h-.87v-4.34c0-1.23-.6-1.82-1.65-1.82-1.2,0-2.06.81-2.29,2.03-.06.32-.07.63-.07,1.34v2.79h-.87Z"/>
    <path class="st5" d="M370.91,168.76c-1.9,0-3.25-1.47-3.25-3.57s1.35-3.57,3.25-3.57,3.25,1.47,3.25,3.57-1.34,3.57-3.25,3.57ZM370.91,167.92c1.39,0,2.38-1.11,2.38-2.73s-.99-2.73-2.38-2.73-2.38,1.11-2.38,2.73,1,2.73,2.38,2.73Z"/>
    <path class="st5" d="M365.22,168.62v-6.86h.87v6.86h-.87ZM365.18,160.14v-1.32h.95v1.32h-.95Z"/>
    <path class="st5" d="M362.81,168.76c-1.44,0-2.14-.81-2.14-2.34v-3.82h-1.19v-.84h1.19v-2.17h.87v2.17h2.21v.84h-2.21v3.85c0,1.04.36,1.47,1.3,1.47.37,0,.67-.06.97-.15l.11.83c-.35.11-.71.17-1.11.17Z"/>
    <path class="st5" d="M355.96,168.76c-1.91,0-3.25-1.47-3.25-3.57s1.34-3.57,3.25-3.57c1.37,0,2.29.62,2.88,1.86l-.76.39c-.47-.97-1.13-1.41-2.12-1.41-1.39,0-2.38,1.11-2.38,2.73s.99,2.73,2.38,2.73c.99,0,1.65-.45,2.12-1.41l.76.39c-.59,1.25-1.51,1.86-2.88,1.86Z"/>
    <path class="st5" d="M347.83,168.76c-1.8,0-3.16-1.47-3.16-3.57s1.36-3.57,3.16-3.57c1.07,0,1.93.5,2.47,1.36v-1.22h.86v6.86h-.82l-.03-1.23c-.53.85-1.41,1.37-2.48,1.37ZM347.92,167.92c1.38,0,2.38-1.11,2.38-2.73s-1-2.73-2.38-2.73-2.38,1.11-2.38,2.73.99,2.73,2.38,2.73Z"/>
    <path class="st5" d="M334.02,168.62v-6.86h.8l.03,1.33h.03c.49-.97,1.35-1.47,2.43-1.47,1.47,0,2.47,1.01,2.47,2.65v4.35h-.87v-4.34c0-1.23-.6-1.82-1.65-1.82-1.21,0-2.06.81-2.3,2.03-.06.32-.07.63-.07,1.34v2.79h-.87Z"/>
    <path class="st5" d="M328.8,168.76c-1.8,0-3.16-1.47-3.16-3.57s1.36-3.57,3.16-3.57c1.07,0,1.93.5,2.47,1.36v-1.22h.86v6.86h-.82l-.03-1.23c-.53.85-1.41,1.37-2.48,1.37ZM328.89,167.92c1.38,0,2.38-1.11,2.38-2.73s-1-2.73-2.38-2.73-2.38,1.11-2.38,2.73.99,2.73,2.38,2.73Z"/>
    <path class="st5" d="M320.13,168.76c-1.44,0-2.14-.81-2.14-2.34v-3.82h-1.19v-.84h1.19v-2.17h.87v2.17h2.21v.84h-2.21v3.85c0,1.04.36,1.47,1.3,1.47.36,0,.67-.06.96-.15l.12.83c-.35.11-.72.17-1.11.17Z"/>
    <path class="st5" d="M315.53,161.76v6.86h-.79l-.03-1.33h-.03c-.49.97-1.36,1.47-2.44,1.47-1.47,0-2.46-1.01-2.46-2.65v-4.35h.87v4.34c0,1.23.6,1.82,1.65,1.82,1.2,0,2.06-.81,2.3-2.03.05-.32.07-.63.07-1.34v-2.79h.86Z"/>
    <path class="st5" d="M305,168.76c-1.9,0-3.25-1.47-3.25-3.57s1.35-3.57,3.25-3.57,3.25,1.47,3.25,3.57-1.35,3.57-3.25,3.57ZM305,167.92c1.39,0,2.38-1.11,2.38-2.73s-.99-2.73-2.38-2.73-2.38,1.11-2.38,2.73.99,2.73,2.38,2.73Z"/>
    <path class="st5" d="M297.19,168.76c-1.07,0-1.95-.52-2.48-1.37l-.03,1.23h-.83v-10.29h.87v4.65c.53-.85,1.4-1.36,2.47-1.36,1.8,0,3.16,1.47,3.16,3.57s-1.36,3.57-3.16,3.57ZM297.1,167.92c1.39,0,2.38-1.11,2.38-2.73s-.99-2.73-2.38-2.73-2.38,1.11-2.38,2.73,1,2.73,2.38,2.73Z"/>
    <path class="st5" d="M288.63,168.76c-1.8,0-3.16-1.47-3.16-3.57s1.36-3.57,3.16-3.57c1.07,0,1.94.5,2.47,1.36v-1.22h.87v6.86h-.83l-.03-1.23c-.53.85-1.41,1.37-2.48,1.37ZM288.72,167.92c1.38,0,2.38-1.11,2.38-2.73s-1-2.73-2.38-2.73-2.38,1.11-2.38,2.73.99,2.73,2.38,2.73Z"/>
    <path class="st5" d="M277.62,168.76c-1.96,0-3.32-1.46-3.32-3.56s1.36-3.58,3.22-3.58,3.21,1.5,3.21,3.65c0,.04,0,.17-.02.32h-5.53c.16,1.48,1.12,2.32,2.47,2.32.88,0,1.54-.36,2.19-1.29l.66.48c-.67,1.08-1.65,1.65-2.88,1.65ZM279.83,164.76c-.13-1.33-1.02-2.3-2.34-2.3-1.23,0-2.15.94-2.31,2.3h4.65Z"/>
    <path class="st5" d="M269.42,168.76c-1.8,0-3.16-1.47-3.16-3.57s1.36-3.57,3.16-3.57c1.08,0,1.95.52,2.48,1.39l.03-1.25h.83v6.13c0,2.3-1.22,3.71-3.21,3.71-1.2,0-2.28-.46-3.01-1.32l.53-.63c.7.76,1.51,1.11,2.51,1.11,1.45,0,2.31-1.04,2.31-2.86v-.5c-.53.85-1.4,1.36-2.47,1.36ZM269.51,167.92c1.38,0,2.38-1.11,2.38-2.73s-1-2.73-2.38-2.73-2.38,1.11-2.38,2.73.99,2.73,2.38,2.73Z"/>
    <path class="st5" d="M261.39,168.76c-1.81,0-3.17-1.47-3.17-3.57s1.36-3.57,3.17-3.57c1.06,0,1.93.5,2.46,1.36v-1.22h.87v6.86h-.83l-.03-1.23c-.53.85-1.41,1.37-2.47,1.37ZM261.47,167.92c1.39,0,2.38-1.11,2.38-2.73s-.99-2.73-2.38-2.73-2.38,1.11-2.38,2.73.99,2.73,2.38,2.73Z"/>
    <path class="st5" d="M254.45,168.76c-1.13,0-2.24-.42-2.9-1.11l.49-.66c.59.62,1.57.95,2.43.95,1,0,1.73-.43,1.73-1.16,0-.94-1.22-1.15-1.87-1.26-1.1-.18-2.45-.59-2.45-1.99,0-1.16.91-1.92,2.39-1.92.91,0,1.74.28,2.53.87l-.43.69c-.71-.49-1.39-.74-2.16-.74-.91,0-1.51.41-1.51,1.05,0,.88,1.15,1.09,1.74,1.19,1.26.21,2.59.63,2.59,2.06,0,1.25-1.02,2.03-2.58,2.03Z"/>
    <path class="st5" d="M247.98,168.76c-1.13,0-2.24-.42-2.9-1.11l.49-.66c.59.62,1.57.95,2.42.95,1.01,0,1.74-.43,1.74-1.16,0-.94-1.22-1.15-1.88-1.26-1.09-.18-2.45-.59-2.45-1.99,0-1.16.91-1.92,2.39-1.92.91,0,1.74.28,2.53.87l-.43.69c-.71-.49-1.39-.74-2.16-.74-.91,0-1.51.41-1.51,1.05,0,.88,1.15,1.09,1.74,1.19,1.26.21,2.59.63,2.59,2.06,0,1.25-1.02,2.03-2.58,2.03Z"/>
    <path class="st5" d="M240.96,168.76c-1.96,0-3.32-1.46-3.32-3.56s1.36-3.58,3.22-3.58,3.21,1.5,3.21,3.65c0,.04,0,.17-.01.32h-5.53c.15,1.48,1.12,2.32,2.46,2.32.88,0,1.54-.36,2.2-1.29l.66.48c-.67,1.08-1.65,1.65-2.88,1.65ZM243.17,164.76c-.13-1.33-1.02-2.3-2.34-2.3-1.23,0-2.16.94-2.31,2.3h4.65Z"/>
    <path class="st5" d="M226.51,168.62v-6.86h.8v1.2h.03c.42-.84,1.18-1.34,2.16-1.34,1.04,0,1.78.57,2.07,1.57.41-.98,1.29-1.57,2.34-1.57,1.34,0,2.23,1.02,2.23,2.7v4.3h-.87v-4.3c0-1.25-.52-1.88-1.5-1.88-1.04,0-1.75.8-1.96,2.11-.04.29-.06.64-.06,1.4v2.66h-.87v-4.3c0-1.23-.52-1.88-1.48-1.88-1.06,0-1.75.78-1.96,2.11-.04.29-.06.64-.06,1.4v2.66h-.87Z"/>
    <path class="st5" d="M218.78,168.76c-1.9,0-3.25-1.47-3.25-3.57s1.34-3.57,3.25-3.57c1.37,0,2.3.62,2.88,1.86l-.76.39c-.48-.97-1.13-1.41-2.13-1.41-1.39,0-2.38,1.11-2.38,2.73s.99,2.73,2.38,2.73c.99,0,1.65-.45,2.13-1.41l.76.39c-.59,1.25-1.51,1.86-2.88,1.86Z"/>
    <path class="st5" d="M213.09,168.62v-6.86h.87v6.86h-.87ZM213.05,160.14v-1.32h.95v1.32h-.95Z"/>
    <path class="st5" d="M208.27,168.62v-6.86h.78l.03,1.44h.01c.48-1.02,1.13-1.58,2.16-1.58.15,0,.32.01.41.03l-.06.84c-.08-.01-.21-.03-.35-.03-.98,0-1.76.85-2.02,2.17-.08.42-.1.92-.1,1.51v2.48h-.87Z"/>
    <path class="st5" d="M203.61,168.76c-1.96,0-3.32-1.46-3.32-3.56s1.36-3.58,3.22-3.58,3.21,1.5,3.21,3.65c0,.04,0,.17-.01.32h-5.53c.15,1.48,1.12,2.32,2.46,2.32.88,0,1.54-.36,2.2-1.29l.66.48c-.67,1.08-1.65,1.65-2.88,1.65ZM205.82,164.76c-.13-1.33-1.02-2.3-2.34-2.3-1.23,0-2.16.94-2.31,2.3h4.65Z"/>
    <path class="st5" d="M193.01,168.62v-6.86h.8l.03,1.33h.03c.49-.97,1.36-1.47,2.44-1.47,1.47,0,2.46,1.01,2.46,2.65v4.35h-.87v-4.34c0-1.23-.6-1.82-1.65-1.82-1.2,0-2.06.81-2.3,2.03-.06.32-.07.63-.07,1.34v2.79h-.87Z"/>
    <path class="st5" d="M188.35,168.76c-1.96,0-3.32-1.46-3.32-3.56s1.36-3.58,3.22-3.58,3.21,1.5,3.21,3.65c0,.04,0,.17-.01.32h-5.53c.15,1.48,1.12,2.32,2.46,2.32.88,0,1.54-.36,2.2-1.29l.66.48c-.67,1.08-1.65,1.65-2.88,1.65ZM190.56,164.76c-.13-1.33-1.02-2.3-2.34-2.3-1.23,0-2.16.94-2.31,2.3h4.65Z"/>
    <path class="st5" d="M180.16,168.76c-1.81,0-3.16-1.47-3.16-3.57s1.36-3.57,3.16-3.57c1.08,0,1.95.52,2.48,1.39l.03-1.25h.83v6.13c0,2.3-1.22,3.71-3.21,3.71-1.2,0-2.28-.46-3.01-1.32l.53-.63c.7.76,1.51,1.11,2.51,1.11,1.46,0,2.31-1.04,2.31-2.86v-.5c-.53.85-1.4,1.36-2.46,1.36ZM180.24,167.92c1.39,0,2.38-1.11,2.38-2.73s-.99-2.73-2.38-2.73-2.38,1.11-2.38,2.73.99,2.73,2.38,2.73Z"/>
    <path class="st5" d="M171.93,168.62l-1.08-2.76h-4.91l-1.06,2.76h-.95l3.91-10.01h1.13l3.92,10.01h-.95ZM166.27,164.99h4.24l-2.11-5.46-2.13,5.46Z"/>
    <path class="st7" d="M476.69,163.67l-1.34-1.34-4.66,4.66-4.66-4.66-1.34,1.34,4.66,4.66-4.66,4.66,1.34,1.34,4.66-4.66,4.66,4.66,1.34-1.34-4.66-4.66,4.66-4.66Z"/>
  </g>
  <path class="st15" d="M58.69,72.33c0-2.21,1.79-4,4-4h87.42c2.21,0,4,1.79,4,4v32c0,2.21-1.79,4-4,4H62.69c-2.21,0-4-1.79-4-4v-32Z"/>
  <path class="st5" d="M139.38,84.31c1.71,0,2.74,1.18,2.74,3.1v5.01h-1.57v-4.8c0-1.22-.56-1.87-1.6-1.87s-1.82.74-2.05,1.97c-.05.3-.06.67-.06,1.57v3.14h-1.57v-7.95h1.41l.05,1.42c.5-.98,1.5-1.58,2.66-1.58Z"/>
  <path class="st5" d="M129.83,92.58c-2.24,0-3.84-1.73-3.84-4.13s1.6-4.14,3.84-4.14,3.84,1.73,3.84,4.14-1.62,4.13-3.84,4.13ZM129.83,91.14c1.33,0,2.26-1.1,2.26-2.69s-.93-2.7-2.26-2.7-2.27,1.1-2.27,2.7.94,2.69,2.27,2.69Z"/>
  <path class="st5" d="M123.82,92.58c-1.86,0-2.75-.99-2.75-3.1v-3.57h-1.31v-1.44h1.31v-2.46h1.57v2.46h2.35v1.44h-2.35v3.58c0,1.1.45,1.65,1.36,1.65.32,0,.67-.06,1.02-.19l.21,1.41c-.43.16-.93.22-1.41.22Z"/>
  <path class="st5" d="M117.46,92.58c-1.86,0-2.75-.99-2.75-3.1v-3.57h-1.31v-1.44h1.31v-2.46h1.57v2.46h2.35v1.44h-2.35v3.58c0,1.1.45,1.65,1.36,1.65.32,0,.67-.06,1.02-.19l.21,1.41c-.43.16-.93.22-1.41.22Z"/>
  <path class="st5" d="M110.47,87.62v-3.15h1.57v7.95h-1.41l-.05-1.41c-.5.96-1.5,1.57-2.66,1.57-1.71,0-2.74-1.17-2.74-3.1v-5.01h1.57v4.8c0,1.22.56,1.87,1.6,1.87s1.82-.74,2.05-1.97c.05-.3.06-.67.06-1.55Z"/>
  <path class="st5" d="M101.56,86.4c1.38.46,2.15,1.46,2.15,2.85,0,1.95-1.58,3.17-4.13,3.17h-4.08v-11.44h3.71c2.43,0,3.89,1.12,3.89,2.99,0,1.09-.56,1.92-1.54,2.43ZM99.18,82.51h-2.02v3.23h2.02c1.5,0,2.29-.58,2.29-1.65s-.75-1.58-2.29-1.58ZM97.17,90.87h2.39c1.66,0,2.54-.59,2.54-1.73,0-1.26-.85-1.9-2.54-1.9h-2.39v3.63Z"/>
  <path class="st5" d="M84.77,95.68c-.59,0-1.09-.13-1.54-.32l.38-1.3c.27.11.59.21.96.21.64,0,1.14-.42,1.5-1.34l.3-.78-3.25-7.68h1.65l2.34,5.81,2.06-5.81h1.65l-3.38,8.93c-.64,1.7-1.65,2.29-2.69,2.29Z"/>
  <path class="st5" d="M81.81,80.98v11.44h-1.65v-8.4l-3.39,8.4h-1.02l-3.41-8.42v8.42h-1.65v-11.44h2.02l3.55,8.83,3.54-8.83h2.02Z"/>
  <path class="st21" d="M181.69,87.33c0-5.52,4.48-10,10-10h16c5.52,0,10,4.48,10,10s-4.48,10-10,10h-16c-5.52,0-10-4.48-10-10Z"/>
  <path class="st5" d="M213.69,87.33c0,3.31-2.69,6-6,6s-6-2.69-6-6,2.69-6,6-6,6,2.69,6,6Z"/>
  <path class="st17" d="M232.07,92.47c-1.43,0-2.86-.53-3.93-1.67l.6-.63c1.04,1.08,2.2,1.43,3.33,1.43,1.64,0,2.67-.78,2.67-1.95,0-1.37-1.57-1.74-2.79-2-1.09-.24-3.36-.71-3.36-2.83,0-1.74,1.48-2.65,3.25-2.65,1.44,0,2.62.56,3.67,1.5l-.57.66c-1.01-.87-1.95-1.29-3.11-1.29-1.32,0-2.35.62-2.35,1.78,0,1.33,1.32,1.67,2.53,1.92,1.19.25,3.61.74,3.61,2.93,0,1.68-1.47,2.8-3.56,2.8ZM243.07,92.33l-1.86-5.75-1.88,5.75h-.98l-1.89-6.86h.87l1.55,5.82,1.89-5.82h.85l1.89,5.82,1.55-5.82h.87l-1.89,6.86h-.98ZM247.12,92.33v-6.86h.87v6.86h-.87ZM247.08,83.85v-1.32h.95v1.32h-.95ZM252.67,92.47c-1.44,0-2.14-.81-2.14-2.34v-3.82h-1.19v-.84h1.19v-2.17h.87v2.17h2.21v.84h-2.21v3.85c0,1.04.36,1.47,1.3,1.47.37,0,.67-.06.97-.15l.11.83c-.35.11-.71.17-1.11.17ZM257.75,92.47c-1.9,0-3.25-1.47-3.25-3.57s1.35-3.57,3.25-3.57c1.37,0,2.3.62,2.89,1.86l-.76.39c-.48-.97-1.13-1.41-2.13-1.41-1.38,0-2.38,1.11-2.38,2.73s1,2.73,2.38,2.73c1,0,1.65-.45,2.13-1.41l.76.39c-.59,1.25-1.52,1.86-2.89,1.86ZM261.86,92.33v-10.29h.87v4.73c.49-.95,1.36-1.44,2.42-1.44,1.47,0,2.47,1.01,2.47,2.65v4.35h-.87v-4.34c0-1.23-.6-1.82-1.65-1.82-1.21,0-2.06.81-2.3,2.03-.05.32-.07.63-.07,1.34v2.79h-.87ZM269.44,92.33v-10.01h.9v9.14h5.43v.87h-6.33ZM279.67,92.47c-1.81,0-3.17-1.47-3.17-3.57s1.36-3.57,3.17-3.57c1.06,0,1.93.5,2.46,1.36v-1.22h.87v6.86h-.83l-.03-1.23c-.53.85-1.41,1.37-2.47,1.37ZM279.75,91.63c1.39,0,2.38-1.11,2.38-2.73s-.99-2.73-2.38-2.73-2.38,1.11-2.38,2.73.99,2.73,2.38,2.73ZM288.22,92.47c-1.06,0-1.95-.52-2.48-1.37l-.03,1.23h-.82v-10.29h.87v4.65c.53-.85,1.4-1.36,2.46-1.36,1.81,0,3.16,1.47,3.16,3.57s-1.35,3.57-3.16,3.57ZM288.14,91.63c1.38,0,2.38-1.11,2.38-2.73s-1-2.73-2.38-2.73-2.38,1.11-2.38,2.73.99,2.73,2.38,2.73ZM296.1,92.47c-1.96,0-3.32-1.46-3.32-3.56s1.36-3.58,3.22-3.58,3.21,1.5,3.21,3.65c0,.04,0,.17-.01.32h-5.53c.15,1.48,1.12,2.32,2.46,2.32.88,0,1.54-.36,2.2-1.29l.66.48c-.68,1.08-1.66,1.65-2.89,1.65ZM298.31,88.47c-.12-1.33-1.02-2.3-2.33-2.3-1.24,0-2.16.94-2.31,2.3h4.64ZM300.76,92.33v-10.29h.87v10.29h-.87Z"/>
  <path class="st16" d="M130.69,277.33c0-17.67-14.33-32-32-32s-32,14.33-32,32,14.33,32,32,32v8c-22.09,0-40-17.91-40-40s17.91-40,40-40,40,17.91,40,40-17.91,40-40,40v-8c17.67,0,32-14.33,32-32Z"/>
  <path class="st3" d="M98.69,237.33c8.45,0,16.68,2.68,23.51,7.64,6.83,4.96,11.92,11.97,14.53,20,2.61,8.03,2.61,16.69,0,24.72-2.61,8.03-7.7,15.04-14.53,20-6.83,4.97-15.07,7.64-23.51,7.64s-16.68-2.67-23.51-7.64c-6.83-4.96-11.92-11.97-14.53-20-2.61-8.03-2.61-16.69,0-24.72.68-2.1,2.94-3.25,5.04-2.57,2.1.68,3.25,2.94,2.57,5.04-2.09,6.43-2.09,13.35,0,19.78,2.09,6.43,6.16,12.03,11.62,16,5.47,3.97,12.05,6.11,18.81,6.11s13.34-2.14,18.81-6.11c5.47-3.97,9.53-9.57,11.62-16,2.09-6.43,2.09-13.35,0-19.78-2.09-6.43-6.16-12.03-11.62-16-5.47-3.97-12.05-6.11-18.81-6.11-2.21,0-4-1.79-4-4s1.79-4,4-4Z"/>
  <path class="st17" d="M177.41,257.32c2.42,0,3.92,1.25,3.92,3.26s-1.48,3.28-3.92,3.28h-1.36v3.47h-1.46v-10.01h2.81ZM176.06,262.5h1.36c1.62,0,2.46-.66,2.46-1.92s-.85-1.92-2.46-1.92h-1.36v3.84ZM184.14,267.33h-1.37v-6.96h1.23l.06,1.36h.01c.34-.95,1.11-1.51,2.09-1.51.17,0,.32.01.49.06l-.08,1.29c-.21-.06-.41-.08-.62-.08-.91,0-1.54.69-1.75,1.9-.04.27-.06.63-.06,1.25v2.7ZM190.6,267.47c-1.96,0-3.36-1.51-3.36-3.61s1.4-3.63,3.36-3.63,3.36,1.51,3.36,3.63-1.41,3.61-3.36,3.61ZM190.6,266.21c1.16,0,1.97-.97,1.97-2.35s-.81-2.37-1.97-2.37-1.99.97-1.99,2.37.83,2.35,1.99,2.35ZM200.6,261.48l.08-1.11h1.25v6.15c0,2.35-1.26,3.79-3.33,3.79-1.29,0-2.46-.49-3.22-1.34l.74-.98c.7.71,1.46,1.05,2.35,1.05,1.33,0,2.07-.9,2.07-2.51v-.27c-.53.73-1.33,1.16-2.27,1.16-1.78,0-3.07-1.53-3.07-3.61s1.3-3.58,3.07-3.58c.97,0,1.79.46,2.32,1.25ZM198.57,266.17c1.15,0,1.97-.98,1.97-2.35s-.83-2.32-1.97-2.32-1.99.98-1.99,2.32.83,2.35,1.99,2.35ZM205.04,267.33h-1.37v-6.96h1.23l.06,1.36h.01c.34-.95,1.11-1.51,2.09-1.51.17,0,.32.01.49.06l-.08,1.29c-.21-.06-.41-.08-.62-.08-.91,0-1.54.69-1.75,1.9-.04.27-.06.63-.06,1.25v2.7ZM211.49,267.47c-1.95,0-3.36-1.51-3.36-3.61s1.36-3.63,3.29-3.63,3.29,1.48,3.29,3.53c0,.21-.01.41-.04.57h-5.14c.17,1.16.92,1.9,1.96,1.9.81,0,1.4-.34,1.93-1.11l1.08.63c-.63,1.11-1.68,1.71-3.01,1.71ZM209.53,263.28h3.74c-.11-1.11-.84-1.82-1.85-1.82s-1.72.71-1.89,1.82ZM218.72,267.47c-1.25,0-2.38-.46-3.05-1.18l.69-.95c.62.62,1.48.95,2.32.95s1.41-.39,1.41-.94c0-.64-.83-.81-1.57-.97-1.11-.21-2.55-.6-2.55-2.09,0-1.23,1.01-2.07,2.46-2.07,1.12,0,2.04.38,2.81.99l-.69.97c-.69-.52-1.41-.77-2.13-.77s-1.16.32-1.16.81c0,.69.9.85,1.43.95,1.32.25,2.69.67,2.69,2.13,0,1.3-1.09,2.16-2.67,2.16ZM225.39,267.47c-1.25,0-2.38-.46-3.05-1.18l.69-.95c.62.62,1.48.95,2.32.95s1.41-.39,1.41-.94c0-.64-.83-.81-1.57-.97-1.11-.21-2.55-.6-2.55-2.09,0-1.23,1.01-2.07,2.46-2.07,1.12,0,2.04.38,2.81.99l-.69.97c-.69-.52-1.41-.77-2.13-.77s-1.16.32-1.16.81c0,.69.9.85,1.43.95,1.32.25,2.69.67,2.69,2.13,0,1.3-1.09,2.16-2.67,2.16ZM238.23,262.07c1.2.41,1.88,1.27,1.88,2.49,0,1.71-1.39,2.77-3.61,2.77h-3.57v-10.01h3.25c2.13,0,3.4.98,3.4,2.62,0,.95-.49,1.68-1.34,2.13ZM236.14,258.66h-1.76v2.83h1.76c1.32,0,2-.5,2-1.44s-.66-1.39-2-1.39ZM234.38,265.97h2.09c1.46,0,2.23-.52,2.23-1.51,0-1.11-.74-1.67-2.23-1.67h-2.09v3.18ZM246.67,261.39v-1.02h1.39v6.96h-1.26l-.07-1.11c-.53.78-1.36,1.25-2.32,1.25-1.78,0-3.07-1.53-3.07-3.63s1.29-3.61,3.07-3.61c.92,0,1.72.43,2.27,1.16ZM244.7,266.21c1.15,0,1.97-.98,1.97-2.37s-.83-2.35-1.97-2.35-1.99.98-1.99,2.35.83,2.37,1.99,2.37ZM251.17,267.33h-1.38v-6.96h1.24l.05,1.36h.02c.33-.95,1.1-1.51,2.08-1.51.17,0,.32.01.49.06l-.08,1.29c-.21-.06-.41-.08-.62-.08-.91,0-1.54.69-1.75,1.9-.04.27-.05.63-.05,1.25v2.7ZM259.66,257.32v8.64h5.03v1.37h-6.49v-10.01h1.46ZM270.78,261.39v-1.02h1.38v6.96h-1.26l-.07-1.11c-.53.78-1.35,1.25-2.32,1.25-1.78,0-3.07-1.53-3.07-3.63s1.29-3.61,3.07-3.61c.92,0,1.72.43,2.27,1.16ZM268.8,266.21c1.15,0,1.98-.98,1.98-2.37s-.83-2.35-1.98-2.35-1.98.98-1.98,2.35.82,2.37,1.98,2.37ZM277.54,260.23c1.79,0,3.08,1.51,3.08,3.63s-1.29,3.61-3.08,3.61c-.97,0-1.78-.46-2.33-1.23l-.07,1.09h-1.24v-10.29h1.37v4.35c.53-.73,1.33-1.16,2.27-1.16ZM277.26,266.21c1.16,0,1.97-.97,1.97-2.35s-.81-2.37-1.97-2.37-1.99.98-1.99,2.37.81,2.35,1.99,2.35ZM285.22,267.47c-1.94,0-3.36-1.51-3.36-3.61s1.36-3.63,3.29-3.63,3.29,1.48,3.29,3.53c0,.21-.01.41-.04.57h-5.14c.17,1.16.93,1.9,1.96,1.9.81,0,1.4-.34,1.93-1.11l1.08.63c-.63,1.11-1.68,1.71-3.01,1.71ZM283.26,263.28h3.74c-.11-1.11-.84-1.82-1.85-1.82s-1.72.71-1.89,1.82ZM291.22,267.33h-1.37v-10.29h1.37v10.29Z"/>
  <path class="st17" d="M486.68,258.24c-1.33,0-2.31-1.04-2.31-2.45s.98-2.46,2.31-2.46,2.31,1.05,2.31,2.46-.98,2.45-2.31,2.45ZM486.68,257.46c.86,0,1.5-.7,1.5-1.67s-.63-1.68-1.5-1.68-1.5.71-1.5,1.68.65,1.67,1.5,1.67ZM492.38,263.62c-1.33,0-2.31-1.04-2.31-2.45s.98-2.46,2.31-2.46,2.31,1.05,2.31,2.46-.98,2.45-2.31,2.45ZM492.38,262.84c.85,0,1.5-.7,1.5-1.67s-.63-1.68-1.5-1.68-1.5.71-1.5,1.68.65,1.67,1.5,1.67ZM485.95,263.48l6.36-10.01h.83l-6.36,10.01h-.83Z"/>
  <path class="st17" d="M478.93,263.62c-2.35,0-3.97-2.09-3.97-5.14s1.62-5.15,3.97-5.15,3.98,2.1,3.98,5.15-1.63,5.14-3.98,5.14ZM478.93,262.75c1.85,0,3.08-1.72,3.08-4.27s-1.23-4.28-3.08-4.28-3.08,1.71-3.08,4.28,1.23,4.27,3.08,4.27Z"/>
  <path class="st17" d="M469.38,263.62c-2.36,0-3.98-2.09-3.98-5.14s1.62-5.15,3.98-5.15,3.97,2.1,3.97,5.15-1.62,5.14-3.97,5.14ZM469.38,262.75c1.84,0,3.08-1.72,3.08-4.27s-1.24-4.28-3.08-4.28-3.08,1.71-3.08,4.28,1.23,4.27,3.08,4.27Z"/>
  <path class="st17" d="M462.69,263.48v-9.1l-1.96,1.25-.39-.74,2.37-1.47h.88v10.07h-.9Z"/>
  <g class="st9">
    <g>
      <path class="st18" d="M490.69,279.33c0-1.11.9-2,2-2s2,.89,2,2-.9,2-2,2-2-.89-2-2Z"/>
      <rect class="st16" x="173.69" y="277.33" width="321" height="4"/>
      <path class="st3" d="M173.69,277.33h321v4H173.69v-4Z"/>
      <g class="st8">
        <path class="st5" d="M494.69,277.33h-2v4h4v-4h-2ZM173.69,281.33h2v-4h-4v4h2Z"/>
      </g>
    </g>
  </g>
  <g class="st10">
    <g class="st11">
      <g>
        <path d="M494.25,87.23v11.41h-4.17v-10.66c0-2.6-1.11-4.05-3.27-4.05s-3.59,1.52-3.99,4.07c-.12.61-.15,1.55-.15,3.54v7.08h-4.16v-18.12h3.69c.01.16.1,1.78.1,1.88,0,.13.16.2.26.12,1.53-1.22,3.21-2.35,5.56-2.35,3.87,0,6.13,2.62,6.13,7.08Z"/>
        <path d="M471.79,80.52l-.13,2.07c-.02.13-.17.2-.26.12-.51-.48-2.37-2.54-5.52-2.54-4.53,0-7.86,3.93-7.86,9.26s3.3,9.35,7.86,9.35c3.04,0,4.9-1.99,5.25-2.42.1-.12.28-.04.28.1-.04.55-.11,1.93-.57,3.1-.58,1.48-1.88,2.86-4.49,2.86-2.14,0-4.05-.83-5.85-2.6l-2.18,3c1.98,2.25,5.09,3.51,8.48,3.51,5.45,0,8.72-3.75,8.72-9.89v-15.93h-3.73ZM466.77,94.99c-2.69,0-4.6-2.35-4.6-5.55s1.91-5.5,4.6-5.5,4.6,2.28,4.6,5.5c-.01,3.22-1.92,5.55-4.6,5.55Z"/>
        <path d="M449.31,93.27c0,3.44-2.87,5.74-7.08,5.74-3.3,0-6.24-1.29-8-3.13l1.37-3.28c1.33,1.2,3.46,2.93,6.5,2.93,2.12,0,3.35-.94,3.35-2.13,0-1.38-1.69-1.74-3.71-2.13-2.86-.61-6.67-1.59-6.67-5.52,0-3.29,2.65-5.55,6.57-5.55,3.02,0,5.61,1.16,7.4,2.67l-2.05,2.89c-1.73-1.38-3.54-2.06-5.35-2.06s-2.69.75-2.69,1.84c0,1.52,1.94,1.91,3.37,2.2,3.59.7,6.99,1.78,6.99,5.54Z"/>
        <path d="M388.39,80.16c-5.09,0-8.75,3.97-8.75,9.42s3.66,9.42,8.75,9.42,8.76-3.97,8.76-9.42-3.66-9.42-8.76-9.42ZM388.39,95.21c-2.7,0-4.6-2.31-4.6-5.64s1.86-5.64,4.6-5.64,4.6,2.31,4.6,5.64-1.91,5.64-4.6,5.64Z"/>
        <path d="M398.62,89.58c0-5.38,3.67-9.42,8.55-9.42,3.88,0,6.72,1.96,8.05,5.64l-3.69,1.41c-1.01-2.28-2.34-3.25-4.34-3.25-2.51,0-4.39,2.38-4.39,5.64s1.86,5.64,4.39,5.64c2.02,0,3.33-.97,4.34-3.25l3.69,1.41c-1.33,3.68-4.17,5.64-8.05,5.64-4.88-.03-8.55-4.07-8.55-9.45Z"/>
        <path d="M376.35,72.1c-.07,0-.16.01-.23.06l-2.71,1.45c-.06.03-.09.09-.09.15v8.63c0,.14-.17.2-.27.12-.41-.35-1.34-1.23-2.64-1.84-.68-.32-1.67-.49-2.58-.49-4.56,0-7.86,3.97-7.86,9.42s3.3,9.42,7.86,9.42c2.39,0,4.2-1.26,5.29-2.39.07-.07.12-.12.19-.19.1-.1.27-.04.27.1l.15,2.12h3.76v-26.43c0-.06-.04-.12-.12-.12h-1.02ZM368.72,95.21c-2.72,0-4.6-2.31-4.6-5.64s1.92-5.63,4.6-5.63,4.6,2.31,4.6,5.64-1.86,5.63-4.6,5.63Z"/>
        <path d="M454.21,80.58l-2.6,1.39c-.06.03-.09.09-.09.15v16.53h4.17v-18.02c0-.06-.05-.12-.12-.12h-1.12c-.09.01-.16.03-.24.07Z"/>
        <path d="M453.59,77.58c1.39,0,2.51-1.13,2.51-2.52s-1.12-2.52-2.51-2.52-2.5,1.13-2.5,2.52,1.12,2.52,2.5,2.52Z"/>
        <path d="M432.73,80.51v9.84c0,7.47-4.15,8.64-7.85,8.64s-7.86-1.19-7.86-8.64v-9.84h4.15v10.89c0,1.06.26,3.81,3.71,3.81s3.7-2.74,3.7-3.81v-10.89h4.15Z"/>
        <path d="M496.63,96.79v.26h-.59v1.58h-.29v-1.58h-.59v-.26h1.47ZM498.69,98.63h-.29v-1.45l-.56,1.09h-.16l-.56-1.07v1.44h-.29v-1.84h.37l.55,1.06.55-1.06h.38v1.84Z"/>
        <path class="st19" d="M345.8,91.55v7.18c0,.38-.3.68-.68.68h-18.75c-.38,0-.68-.3-.68-.68v-18.85c0-.38.3-.68.68-.68h7.12v11.67c0,.38.3.68.68.68h11.63Z"/>
        <path class="st20" d="M353.61,81.43c0,6.03-3.5,10.11-7.81,10.12v-7.6c0-.22-.09-.43-.24-.58l-3.93-3.94c-.15-.16-.36-.25-.57-.25h-7.56v-7.16c0-.38.31-.68.68-.68h10.57c5.02-.01,8.86,4.05,8.86,10.09Z"/>
        <path d="M345.56,83.36c.15.16.24.36.24.58v7.6h-11.62c-.37,0-.68-.3-.68-.68v-11.67h7.56c.21,0,.43.09.57.25l3.93,3.93Z"/>
      </g>
    </g>
  </g>
  <path class="st21" d="M179.69,329.33c0-2.21,1.79-4,4-4h12c2.21,0,4,1.79,4,4v12c0,2.21-1.79,4-4,4h-12c-2.21,0-4-1.79-4-4v-12Z"/>
  <path class="st7" d="M187.08,340.07l-4.39-4.39,1.34-1.34,3.66,3.66,8.66-8.67,1.34,1.34-9.39,9.39c-.17.17-.39.26-.61.26s-.44-.1-.61-.26h0Z"/>
  <path class="st17" d="M215.08,339.47c-2.67,0-4.62-2.17-4.62-5.14s1.95-5.15,4.62-5.15c1.62,0,3.04.81,3.88,2.24l-.71.49c-.73-1.2-1.81-1.86-3.16-1.86-2.18,0-3.72,1.79-3.72,4.28s1.54,4.27,3.72,4.27c1.36,0,2.44-.66,3.16-1.86l.71.49c-.84,1.43-2.25,2.24-3.88,2.24ZM220.29,339.33v-10.29h.87v4.73c.49-.95,1.36-1.44,2.42-1.44,1.47,0,2.46,1.01,2.46,2.65v4.35h-.87v-4.34c0-1.23-.6-1.82-1.65-1.82-1.2,0-2.06.81-2.3,2.03-.06.32-.07.63-.07,1.34v2.79h-.87ZM230.89,339.47c-1.96,0-3.32-1.46-3.32-3.56s1.36-3.58,3.22-3.58,3.21,1.5,3.21,3.65c0,.04,0,.17-.01.32h-5.53c.15,1.48,1.12,2.32,2.46,2.32.88,0,1.54-.36,2.2-1.29l.66.48c-.67,1.08-1.65,1.65-2.88,1.65ZM233.11,335.47c-.13-1.33-1.02-2.3-2.34-2.3-1.23,0-2.16.94-2.31,2.3h4.65ZM238.64,339.47c-1.9,0-3.25-1.47-3.25-3.57s1.34-3.57,3.25-3.57c1.37,0,2.3.62,2.88,1.86l-.76.39c-.48-.97-1.13-1.41-2.13-1.41-1.39,0-2.38,1.11-2.38,2.73s.99,2.73,2.38,2.73c.99,0,1.65-.45,2.13-1.41l.76.39c-.59,1.25-1.51,1.86-2.88,1.86ZM242.75,339.33v-10.29h.87v6.99l3.4-3.56h1.19l-2.59,2.69,3.07,4.17h-1.06l-2.6-3.56-1.4,1.46v2.1h-.87ZM252.91,339.47c-1.06,0-1.95-.52-2.48-1.37l-.03,1.23h-.83v-10.29h.87v4.65c.53-.85,1.4-1.36,2.46-1.36,1.81,0,3.16,1.47,3.16,3.57s-1.35,3.57-3.16,3.57ZM252.83,338.63c1.38,0,2.38-1.11,2.38-2.73s-1-2.73-2.38-2.73-2.38,1.11-2.38,2.73.99,2.73,2.38,2.73ZM260.72,339.47c-1.9,0-3.24-1.47-3.24-3.57s1.34-3.57,3.24-3.57,3.25,1.47,3.25,3.57-1.34,3.57-3.25,3.57ZM260.72,338.63c1.39,0,2.38-1.11,2.38-2.73s-.99-2.73-2.38-2.73-2.38,1.11-2.38,2.73,1,2.73,2.38,2.73ZM264.24,339.33l2.72-3.53-2.62-3.33h1.08l2.04,2.7,2.05-2.7h1.08l-2.62,3.33,2.71,3.53h-1.07l-2.15-2.87-2.14,2.87h-1.08ZM274.83,339.33v-10.29h.87v10.29h-.87ZM280.41,339.47c-1.81,0-3.16-1.47-3.16-3.57s1.35-3.57,3.16-3.57c1.06,0,1.93.5,2.46,1.36v-1.22h.87v6.86h-.82l-.03-1.23c-.53.85-1.42,1.37-2.48,1.37ZM280.49,338.63c1.39,0,2.38-1.11,2.38-2.73s-.99-2.73-2.38-2.73-2.38,1.11-2.38,2.73,1,2.73,2.38,2.73ZM288.96,339.47c-1.06,0-1.94-.52-2.47-1.37l-.03,1.23h-.83v-10.29h.87v4.65c.53-.85,1.4-1.36,2.46-1.36,1.81,0,3.17,1.47,3.17,3.57s-1.36,3.57-3.17,3.57ZM288.88,338.63c1.39,0,2.38-1.11,2.38-2.73s-.99-2.73-2.38-2.73-2.38,1.11-2.38,2.73.99,2.73,2.38,2.73ZM296.85,339.47c-1.96,0-3.32-1.46-3.32-3.56s1.36-3.58,3.22-3.58,3.2,1.5,3.2,3.65c0,.04,0,.17-.01.32h-5.53c.15,1.48,1.12,2.32,2.46,2.32.89,0,1.54-.36,2.2-1.29l.66.48c-.67,1.08-1.65,1.65-2.88,1.65ZM299.06,335.47c-.13-1.33-1.02-2.3-2.34-2.3-1.23,0-2.16.94-2.31,2.3h4.65ZM301.5,339.33v-10.29h.87v10.29h-.87Z"/>
  <g>
    <path class="st13" d="M391.69,322.33c0-2.21,1.79-4,4-4h100.02c2.21,0,4,1.79,4,4v21.15c0,2.21-1.79,4-4,4h-100.02c-2.21,0-4-1.79-4-4v-21.15Z" shape-rendering="crispEdges"/>
    <path class="st1" d="M495.71,317.83c2.49,0,4.5,2.02,4.5,4.5v21.15c0,2.49-2.01,4.5-4.5,4.5h-100.02c-2.49,0-4.5-2.01-4.5-4.5v-21.15c0-2.48,2.01-4.5,4.5-4.5h100.02Z" shape-rendering="crispEdges"/>
    <path class="st5" d="M488.55,336.76c-1.07,0-1.93-.5-2.47-1.36v4.07h-.86v-9.72h.82l.03,1.23c.53-.85,1.41-1.37,2.48-1.37,1.8,0,3.16,1.47,3.16,3.57s-1.36,3.57-3.16,3.57ZM488.46,335.92c1.39,0,2.38-1.11,2.38-2.73s-.99-2.73-2.38-2.73-2.38,1.11-2.38,2.73,1,2.73,2.38,2.73Z"/>
    <path class="st5" d="M482.44,336.62v-6.86h.87v6.86h-.87ZM482.4,328.14v-1.32h.95v1.32h-.95Z"/>
    <path class="st5" d="M480.03,336.76c-1.44,0-2.14-.81-2.14-2.34v-3.82h-1.19v-.84h1.19v-2.17h.87v2.17h2.21v.84h-2.21v3.85c0,1.04.36,1.47,1.3,1.47.36,0,.67-.06.97-.15l.11.83c-.35.11-.72.17-1.11.17Z"/>
    <path class="st5" d="M474.5,336.62v-10.29h.86v10.29h-.86Z"/>
    <path class="st5" d="M469.7,336.76c-1.9,0-3.25-1.47-3.25-3.57s1.35-3.57,3.25-3.57,3.25,1.47,3.25,3.57-1.35,3.57-3.25,3.57ZM469.7,335.92c1.39,0,2.38-1.11,2.38-2.73s-.99-2.73-2.38-2.73-2.38,1.11-2.38,2.73.99,2.73,2.38,2.73Z"/>
    <path class="st5" d="M461.8,336.76c-1.91,0-3.25-1.47-3.25-3.57s1.34-3.57,3.25-3.57,3.25,1.47,3.25,3.57-1.35,3.57-3.25,3.57ZM461.8,335.92c1.38,0,2.38-1.11,2.38-2.73s-1-2.73-2.38-2.73-2.38,1.11-2.38,2.73.99,2.73,2.38,2.73Z"/>
    <path class="st5" d="M455.45,336.62v-9.14h-3.38v-.87h7.67v.87h-3.39v9.14h-.9Z"/>
    <path class="st5" d="M444.35,336.76c-1.8,0-3.16-1.47-3.16-3.57s1.36-3.57,3.16-3.57c1.07,0,1.93.5,2.47,1.36v-1.22h.86v6.86h-.82l-.03-1.23c-.53.85-1.41,1.37-2.48,1.37ZM444.44,335.92c1.38,0,2.38-1.11,2.38-2.73s-1-2.73-2.38-2.73-2.38,1.11-2.38,2.73.99,2.73,2.38,2.73Z"/>
    <path class="st5" d="M434,336.76c-1.13,0-2.24-.42-2.9-1.11l.49-.66c.59.62,1.57.95,2.42.95,1.01,0,1.74-.43,1.74-1.16,0-.94-1.22-1.15-1.88-1.26-1.09-.18-2.45-.59-2.45-1.99,0-1.16.91-1.92,2.4-1.92.91,0,1.73.28,2.53.87l-.43.69c-.72-.49-1.39-.74-2.16-.74-.91,0-1.51.41-1.51,1.05,0,.88,1.15,1.09,1.74,1.19,1.26.21,2.59.63,2.59,2.06,0,1.25-1.03,2.03-2.58,2.03Z"/>
    <path class="st5" d="M429,336.62v-6.86h.86v6.86h-.86ZM428.95,328.14v-1.32h.96v1.32h-.96Z"/>
    <path class="st5" d="M421.41,336.76c-1.14,0-2.24-.42-2.9-1.11l.49-.66c.59.62,1.57.95,2.42.95,1.01,0,1.74-.43,1.74-1.16,0-.94-1.22-1.15-1.88-1.26-1.09-.18-2.45-.59-2.45-1.99,0-1.16.91-1.92,2.4-1.92.91,0,1.73.28,2.53.87l-.43.69c-.72-.49-1.39-.74-2.16-.74-.91,0-1.51.41-1.51,1.05,0,.88,1.15,1.09,1.73,1.19,1.26.21,2.59.63,2.59,2.06,0,1.25-1.02,2.03-2.57,2.03Z"/>
    <path class="st5" d="M416.4,336.62v-6.86h.87v6.86h-.87ZM416.36,328.14v-1.32h.95v1.32h-.95Z"/>
    <path class="st5" d="M408.83,336.62v-10.29h.87v4.73c.49-.95,1.36-1.44,2.42-1.44,1.47,0,2.46,1.01,2.46,2.65v4.35h-.86v-4.34c0-1.23-.61-1.82-1.66-1.82-1.2,0-2.05.81-2.29,2.03-.06.32-.07.63-.07,1.34v2.79h-.87Z"/>
    <path class="st5" d="M403.08,336.62v-9.14h-3.39v-.87h7.67v.87h-3.39v9.14h-.89Z"/>
    <path class="st13" d="M452.66,347.48h-14l7,8,7-8Z"/>
    <path class="st4" d="M438.2,348.48l7.08,8.13.38.43.38-.43,7.05-8.13h-1.33l-6.1,7.04-6.13-7.04h-1.33Z"/>
  </g>
  <text class="st12" transform="translate(85.13 472.33)"><tspan x="0" y="0">CURRENT, ON-BRAND, ACCESSIBLE SYSTEM</tspan></text>
</svg>