<svg width="32" height="32" viewBox="0 0 32 32" fill="none" xmlns="http://www.w3.org/2000/svg">
<path d="M26.6666 26.6667V1.06667C26.6666 0.783769 26.5261 0.512458 26.2761 0.312419C26.026 0.112381 25.6869 0 25.3333 0H7.99998C7.64945 0.0117242 7.31545 0.122457 7.05731 0.312533L0.390666 5.64587C0.150902 5.85126 0.0121373 6.11913 0 6.4V26.6667C0 26.9496 0.140476 27.2209 0.390523 27.4209C0.640571 27.6209 0.979709 27.7333 1.33333 27.7333H25.3333C25.6869 27.7333 26.026 27.6209 26.2761 27.4209C26.5261 27.2209 26.6666 26.9496 26.6666 26.6667ZM6.66665 3.64171V5.33333H4.55212L6.66665 3.64171ZM23.9999 25.6H2.66666V7.46666H7.99998C8.3536 7.46666 8.69274 7.35428 8.94278 7.15424C9.19283 6.95421 9.33331 6.6829 9.33331 6.4V2.13333H23.9999V25.6Z" fill="#F7CEFF"/>
<path d="M30.6666 4.26666C30.313 4.26666 29.9739 4.37904 29.7238 4.57908C29.4738 4.77912 29.3333 5.05043 29.3333 5.33333V29.8667H6.6667C6.31308 29.8667 5.97395 29.979 5.7239 30.1791C5.47385 30.3791 5.33337 30.6504 5.33337 30.9333C5.33337 31.2162 5.47385 31.4875 5.7239 31.6876C5.97395 31.8876 6.31308 32 6.6667 32H30.6666C31.0203 32 31.3594 31.8876 31.6094 31.6876C31.8595 31.4875 32 31.2162 32 30.9333V5.33333C32 5.05043 31.8595 4.77912 31.6094 4.57908C31.3594 4.37904 31.0203 4.26666 30.6666 4.26666Z" fill="#F7CEFF"/>
<path d="M12 6.4H21.3333C21.6869 6.4 22.026 6.28761 22.2761 6.08758C22.5261 5.88754 22.6666 5.61623 22.6666 5.33333C22.6666 5.05043 22.5261 4.77912 22.2761 4.57908C22.026 4.37904 21.6869 4.26666 21.3333 4.26666H12C11.6463 4.26666 11.3072 4.37904 11.0571 4.57908C10.8071 4.77912 10.6666 5.05043 10.6666 5.33333C10.6666 5.61623 10.8071 5.88754 11.0571 6.08758C11.3072 6.28761 11.6463 6.4 12 6.4Z" fill="#F7CEFF"/>
<path d="M21.3333 8.53333H5.33333C4.97971 8.53333 4.64057 8.64571 4.39052 8.84574C4.14048 9.04578 4 9.31709 4 9.59999C4 9.88289 4.14048 10.1542 4.39052 10.3542C4.64057 10.5543 4.97971 10.6667 5.33333 10.6667H21.3333C21.6869 10.6667 22.026 10.5543 22.2761 10.3542C22.5261 10.1542 22.6666 9.88289 22.6666 9.59999C22.6666 9.31709 22.5261 9.04578 22.2761 8.84574C22.026 8.64571 21.6869 8.53333 21.3333 8.53333Z" fill="#F7CEFF"/>
<path d="M21.3333 12.8H5.33333C4.97971 12.8 4.64057 12.9124 4.39052 13.1124C4.14048 13.3125 4 13.5838 4 13.8667C4 14.1496 4.14048 14.4209 4.39052 14.6209C4.64057 14.821 4.97971 14.9334 5.33333 14.9334H21.3333C21.6869 14.9334 22.026 14.821 22.2761 14.6209C22.5261 14.4209 22.6666 14.1496 22.6666 13.8667C22.6666 13.5838 22.5261 13.3125 22.2761 13.1124C22.026 12.9124 21.6869 12.8 21.3333 12.8Z" fill="#F7CEFF"/>
<path d="M21.3333 17.0667H5.33333C4.97971 17.0667 4.64057 17.1791 4.39052 17.3791C4.14048 17.5791 4 17.8504 4 18.1333C4 18.4162 4.14048 18.6876 4.39052 18.8876C4.64057 19.0876 4.97971 19.2 5.33333 19.2H21.3333C21.6869 19.2 22.026 19.0876 22.2761 18.8876C22.5261 18.6876 22.6666 18.4162 22.6666 18.1333C22.6666 17.8504 22.5261 17.5791 22.2761 17.3791C22.026 17.1791 21.6869 17.0667 21.3333 17.0667Z" fill="#F7CEFF"/>
<path d="M21.3333 21.3333H5.33333C4.97971 21.3333 4.64057 21.4457 4.39052 21.6458C4.14048 21.8458 4 22.1171 4 22.4C4 22.6829 4.14048 22.9542 4.39052 23.1543C4.64057 23.3543 4.97971 23.4667 5.33333 23.4667H21.3333C21.6869 23.4667 22.026 23.3543 22.2761 23.1543C22.5261 22.9542 22.6666 22.6829 22.6666 22.4C22.6666 22.1171 22.5261 21.8458 22.2761 21.6458C22.026 21.4457 21.6869 21.3333 21.3333 21.3333Z" fill="#F7CEFF"/>
</svg>
